<?xml version="1.0" encoding="UTF-8"?>
<svg width="61px" height="47px" viewBox="0 0 61 47" version="1.1" xmlns="http://www.w3.org/2000/svg" xmlns:xlink="http://www.w3.org/1999/xlink">
    <title>44BBE591-5688-489D-B687-51BE76EE88D9</title>
    <defs>
        <path d="M25.9016679,5.33410085 C25.9016679,5.33410085 7.3381503,5.33410085 0,0 L0,0 C0,0 0.0554294979,3.78888357 1.85420611,5.67388685 L1.85420611,5.67388685 C4.01595652,7.93822795 12.5905422,10.6708984 25.9016679,10.6691015 L25.9016679,10.6691015 C39.2136877,10.6708984 47.7864853,7.93822795 49.9500238,5.67388685 L49.9500238,5.67388685 C51.7479064,3.78888357 51.8033359,0 51.8033359,0 L51.8033359,0 C44.4651856,5.33410085 25.9016679,5.33410085 25.9016679,5.33410085" id="path-1"></path>
        <linearGradient x1="50.0004308%" y1="99.9999917%" x2="50.0004308%" y2="-0.00506529573%" id="linearGradient-3">
            <stop stop-color="#F9B156" offset="0%"></stop>
            <stop stop-color="#C36D1C" offset="100%"></stop>
        </linearGradient>
        <path d="M0.605730652,2.46929138 C-0.0227683319,3.36729724 -0.657525485,5.68647152 1.44700739,6.12783376 L1.44700739,6.12783376 C1.88686727,6.21952204 2.24090084,6.16828447 2.53056467,6.1170469 L2.53056467,6.1170469 C3.10721025,6.01367285 3.43084699,5.91119771 3.66686937,6.94314038 L3.66686937,6.94314038 C3.99676429,8.38408471 4.89168247,8.08744614 5.96719353,7.62181347 L5.96719353,7.62181347 C6.76555711,7.27753295 7.36187122,7.19932823 7.75077173,7.79350428 L7.75077173,7.79350428 C8.30685476,8.63847476 7.85894865,9.89514361 9.30190365,9.47625399 L9.30190365,9.47625399 C10.7439646,9.05376876 11.6934183,8.21958514 12.4828416,9.39535256 L12.4828416,9.39535256 C13.2704769,10.5720189 13.2812052,9.67311414 14.7304183,9.3827679 L14.7304183,9.3827679 C16.1760554,9.08972495 16.9654787,11.2327139 18.1142998,11.2686701 L18.1142998,11.2686701 C19.2649089,11.3064241 20.3895913,10.4803306 20.8205109,10.2034679 L20.8205109,10.2034679 C20.9885875,10.0955994 21.2907676,10.2349296 21.6653637,10.3742598 L21.6653637,10.3742598 C22.2473735,10.5917948 23.0037179,10.8084308 23.6974807,10.0911049 L23.6974807,10.0911049 C24.3679988,9.39445366 24.6227957,11.0924848 25.6410892,11.1383289 L25.6410892,11.1383289 C26.6593827,11.184173 26.8828887,10.1333534 27.6776762,10.1027906 L27.6776762,10.1027906 C27.9727042,10.0902059 28.2489577,10.1872877 28.5466677,10.2834705 L28.5466677,10.2834705 C29.0473212,10.4461722 29.6096624,10.6097729 30.4276945,10.2493121 L30.4276945,10.2493121 C31.7302877,9.67491195 32.8424538,6.39660628 32.6502386,5.97052542 L32.6502386,5.97052542 C32.4544473,5.54714128 7.59610555,4.85858023 2.61728501,0 L2.61728501,0 C2.61728501,0 1.0071475,1.89848686 0.605730652,2.46929138" id="path-4"></path>
        <linearGradient x1="46.3510442%" y1="55.5515214%" x2="50.3404749%" y2="48.9513867%" id="linearGradient-6">
            <stop stop-color="#50740B" offset="0%"></stop>
            <stop stop-color="#A1CF48" offset="100%"></stop>
        </linearGradient>
        <path d="M0.133870975,5.04824914 C-0.0851649443,5.53365771 -0.215692472,7.06988595 1.24693105,7.70810833 L1.24693105,7.70810833 C2.52091548,8.26363147 3.68940506,8.02721952 4.59952165,7.79080757 L4.59952165,7.79080757 C5.11984371,7.65597185 5.55702152,7.52023723 5.88065827,7.5328219 L5.88065827,7.5328219 C6.76753024,7.56967699 7.0142809,8.77061376 8.15237366,8.71937618 L8.15237366,8.71937618 C9.28957239,8.66364409 10.6940843,7.86271995 11.7749596,8.00654471 L11.7749596,8.00654471 C12.8558348,8.14767276 12.8907017,9.4205219 13.5415513,9.88166004 L13.5415513,9.88166004 C14.5437524,10.5935926 15.3573144,10.1432413 15.9670388,9.69109223 L15.9670388,9.69109223 C16.3908063,9.37737447 16.7171251,9.06455561 16.9397371,9.14096252 L16.9397371,9.14096252 C18.1770666,9.5715379 18.0375988,10.0767224 19.2069824,10.6070762 L19.2069824,10.6070762 C20.0044519,10.9693348 20.560535,9.79356737 21.7111441,8.90544947 L21.7111441,8.90544947 C22.3047761,8.44610914 23.1478409,8.78499623 23.9631909,9.12208552 L23.9631909,9.12208552 C24.8679434,9.4960299 25.7387229,9.86997428 26.2018274,9.15894061 L26.2018274,9.15894061 C27.0824412,7.81058347 28.1436479,8.76522033 29.7537854,9.24613437 L29.7537854,9.24613437 C31.3648169,9.72525061 31.5105429,8.45330038 32.0281829,7.42495333 L32.0281829,7.42495333 C32.6182388,6.25278152 33.4452111,5.85187 34.2945341,6.8541488 L34.2945341,6.8541488 C35.142963,7.85822542 36.8425029,8.40655733 37.2492839,6.97280423 L37.2492839,6.97280423 C37.7472554,5.22173776 38.2085719,5.29814466 39.4548415,6.14131733 L39.4548415,6.14131733 C40.7011112,6.9862878 41.7971848,4.44778076 41.8287496,3.65494676 L41.8287496,3.65494676 C41.8606606,2.86211276 39.0462725,0 39.0462725,0 L39.0462725,0 C35.3047814,4.096309 0.351118845,4.56104276 0.133870975,5.04824914" id="path-7"></path>
        <linearGradient x1="53.0812693%" y1="53.8843384%" x2="48.0994149%" y2="47.0808963%" id="linearGradient-9">
            <stop stop-color="#50740B" offset="0%"></stop>
            <stop stop-color="#A1CF48" offset="100%"></stop>
        </linearGradient>
        <path d="M26.8989483,5.46174533 C26.8989483,5.46174533 7.71944805,5.33320195 0.381297749,0 L0.381297749,0 C0.381297749,0 -0.80060219,5.93546814 0.997280394,7.81867361 L0.997280394,7.81867361 C3.16081886,10.0857114 13.5878226,13.1545723 26.8989483,13.1536736 L26.8989483,13.1536736 C40.2109681,13.1545723 50.6379718,10.0857114 52.8006163,7.81867361 L52.8006163,7.81867361 C54.5993929,5.93546814 53.4165989,0 53.4165989,0 L53.4165989,0 C46.0793426,5.33320195 26.8989483,5.46174533 26.8989483,5.46174533" id="path-10"></path>
        <linearGradient x1="49.9996998%" y1="100.004093%" x2="49.9996998%" y2="48.9599022%" id="linearGradient-12">
            <stop stop-color="#330500" offset="0%"></stop>
            <stop stop-color="#6B1C0A" offset="100%"></stop>
        </linearGradient>
        <path d="M9.54723631,0.467430476 C3.45267361,1.89489124 -0.767120418,6.15120528 0.117069475,9.97514614 L0.117069475,9.97514614 C1.00215339,13.7981881 6.6604323,15.7443169 12.754101,14.317755 L12.754101,14.317755 C18.8486637,12.8911932 23.0684577,8.63398023 22.1824797,4.81003938 L22.1824797,4.81003938 C21.4949752,1.83736133 17.9224546,0 13.5023992,0 L13.5023992,0 C12.237355,0 10.903471,0.150117095 9.54723631,0.467430476" id="path-13"></path>
        <linearGradient x1="50.2976126%" y1="72.3244111%" x2="49.8714478%" y2="40.3379422%" id="linearGradient-15">
            <stop stop-color="#A80808" offset="0%"></stop>
            <stop stop-color="#EF4431" offset="100%"></stop>
        </linearGradient>
        <path d="M7.46471788,0.365854238 C2.69867509,1.48319286 -0.600274058,4.80914047 0.0917006415,7.79979661 L0.0917006415,7.79979661 C0.782781316,10.7904528 5.2082009,12.3113996 9.97334967,11.1949599 L9.97334967,11.1949599 C14.7393925,10.080318 18.0401297,6.75077476 17.3454729,3.76101752 L17.3454729,3.76101752 C16.8081644,1.43644981 14.0143389,0 10.5571474,0 L10.5571474,0 C9.56835673,0 8.52503053,0.117756524 7.46471788,0.365854238" id="path-16"></path>
        <linearGradient x1="50.2973404%" y1="72.3225593%" x2="49.871208%" y2="40.3396924%" id="linearGradient-18">
            <stop stop-color="#A80808" offset="0%"></stop>
            <stop stop-color="#EF4431" offset="100%"></stop>
        </linearGradient>
        <path d="M0.000809865066,5.46893657 C-0.0689240193,8.61240652 4.37348203,11.2632767 9.92626608,11.3882244 L9.92626608,11.3882244 C15.4772621,11.5158689 20.0332092,9.06994904 20.1029431,5.92378238 L20.1029431,5.92378238 C20.174465,2.78031243 15.732059,0.13034119 10.181063,0.00449452381 L10.181063,0.00449452381 C10.0433832,0.00179780952 9.90659755,0 9.77070588,0 L9.77070588,0 C4.4056669,0.000898904761 0.0705437495,2.40367133 0.000809865066,5.46893657" id="path-19"></path>
        <linearGradient x1="42.160267%" y1="66.4457454%" x2="53.3947936%" y2="42.8831834%" id="linearGradient-21">
            <stop stop-color="#A80808" offset="0%"></stop>
            <stop stop-color="#EF4431" offset="100%"></stop>
        </linearGradient>
        <path d="M0.000654314794,4.27608995 C-0.0547751831,6.73459447 3.41850868,8.80656995 7.76078402,8.90544947 L7.76078402,8.90544947 C12.1012713,9.00343009 15.6639576,7.08876295 15.7184931,4.63025843 L15.7184931,4.63025843 C15.7739226,2.17355171 12.3015327,0.0997784285 7.9601514,0.00359561905 L7.9601514,0.00359561905 C7.85108046,0.000898904761 7.74290353,0 7.63472661,0 L7.63472661,0 C3.4417533,0 0.0542957643,1.88050876 0.000654314794,4.27608995" id="path-22"></path>
        <linearGradient x1="42.1575855%" y1="66.4477626%" x2="53.3941165%" y2="42.8787064%" id="linearGradient-24">
            <stop stop-color="#A80808" offset="0%"></stop>
            <stop stop-color="#EF4431" offset="100%"></stop>
        </linearGradient>
        <path d="M0,2.68682633 C0,2.68682633 1.66922552,5.48961138 1.98392202,6.12873266 L1.98392202,6.12873266 C3.17386818,8.53240399 4.81619056,10.0479574 7.2640287,8.91713523 L7.2640287,8.91713523 C8.47990156,8.35352195 11.2191916,7.74676123 13.0653515,7.64248828 L13.0653515,7.64248828 C13.6509373,7.61012771 14.3080451,7.65147733 14.9767751,7.69192804 L14.9767751,7.69192804 C16.4125779,7.7791218 17.9002341,7.86631557 18.8496878,7.229891 L18.8496878,7.229891 C19.8286442,6.57369052 21.0632916,6.59526423 21.9421173,6.61593904 L21.9421173,6.61593904 C22.3104553,6.62402919 22.6153175,6.63301823 22.8137909,6.59166861 L22.8137909,6.59166861 C23.483415,6.45233838 26.4184963,6.29862566 23.7149673,1.94972443 L23.7149673,1.94972443 C22.819155,0.50788119 19.9055303,0 16.4134719,0 L16.4134719,0 C9.3694556,0 -0.0321024579,2.06388533 0,2.68682633" id="path-25"></path>
        <linearGradient x1="50.005913%" y1="57.8981358%" x2="49.9979947%" y2="44.6602109%" id="linearGradient-27">
            <stop stop-color="#F2C83F" offset="0%"></stop>
            <stop stop-color="#D3670D" offset="100%"></stop>
        </linearGradient>
        <path d="M0.117620536,6.40739314 C-0.79517813,7.63170142 3.80904629,7.47888761 6.87018501,8.28160957 L6.87018501,8.28160957 C9.93311178,9.08253371 16.7437878,10.3778555 18.6230266,10.6160652 L18.6230266,10.6160652 C20.4995833,10.854275 21.1003676,1.58746581 21.1003676,1.58746581 L21.1003676,1.58746581 L5.06336218,0 C5.06336218,0 1.0304192,5.18398376 0.117620536,6.40739314" id="path-28"></path>
        <linearGradient x1="45.9211308%" y1="59.6583047%" x2="50.9460421%" y2="47.3823747%" id="linearGradient-30">
            <stop stop-color="#F2C83F" offset="0%"></stop>
            <stop stop-color="#D3670D" offset="100%"></stop>
        </linearGradient>
        <path d="M0,2.44951547 C0,2.44951547 4.18671514,9.01691366 5.61983586,9.23984204 L5.61983586,9.23984204 C7.40341406,9.51760361 9.25404407,8.51622371 11.5320176,7.65776966 L11.5320176,7.65776966 C13.8099912,6.80021452 16.2703457,5.7772609 15.5122132,4.29406804 L15.5122132,4.29406804 L12.3125007,0 L0,2.44951547 Z" id="path-31"></path>
        <linearGradient x1="70.6907365%" y1="69.5160418%" x2="52.1298335%" y2="48.1460746%" id="linearGradient-33">
            <stop stop-color="#F2C83F" offset="0%"></stop>
            <stop stop-color="#D3670D" offset="100%"></stop>
        </linearGradient>
        <path d="M0.0460376035,7.7036138 C-0.139025397,8.21419171 0.206067928,11.3270989 1.59001733,11.9374552 L1.59001733,11.9374552 C2.97396672,12.5514072 3.61945217,11.6327265 4.45000061,11.6327265 L4.45000061,11.6327265 C5.27965503,11.6327265 5.55769654,12.8570348 6.61622115,12.7563575 L6.61622115,12.7563575 C7.6765338,12.6547812 7.87053704,10.6394368 8.60006076,11.4277762 L8.60006076,11.4277762 C9.34746495,12.2340938 10.1199018,11.9527366 10.7162159,11.6713794 L10.7162159,11.6713794 C11.1077985,11.4871039 11.422495,11.3028285 11.604876,11.4232817 L11.604876,11.4232817 C12.0661924,11.7289093 13.273125,12.6466911 14.4702234,12.5469127 L14.4702234,12.5469127 C15.6673217,12.4480331 16.3995275,9.88795237 17.9202626,10.1612194 L17.9202626,10.1612194 C19.4436798,10.4344865 19.4919571,11.4933963 20.265288,10.0686322 L20.265288,10.0686322 C21.0359368,8.64566599 22.0631706,9.58322366 23.5847997,10.0093045 L23.5847997,10.0093045 C25.1073228,10.4353854 24.5861067,8.97646295 25.1296734,7.95350933 L25.1296734,7.95350933 C25.5105277,7.23438552 26.1354506,7.29820776 26.9829855,7.6658598 L26.9829855,7.6658598 C28.1219723,8.16115633 29.0687439,8.46768285 29.3521495,6.75616819 L29.3521495,6.75616819 C29.6579058,4.91161562 30.257796,5.36556252 31.6319111,5.68916823 L31.6319111,5.68916823 C33.626479,6.15749761 33.5478049,3.38437643 32.8522541,2.35872609 L32.8522541,2.35872609 C32.4088181,1.70612124 29.3521495,0 29.3521495,0 L29.3521495,0 C24.3652828,5.96243528 0.23020658,7.1930359 0.0460376035,7.7036138" id="path-34"></path>
        <linearGradient x1="56.0072402%" y1="56.2288092%" x2="49.7020735%" y2="49.6291945%" id="linearGradient-36">
            <stop stop-color="#50740B" offset="0%"></stop>
            <stop stop-color="#A1CF48" offset="100%"></stop>
        </linearGradient>
        <path d="M0,4.03877909 C0,4.86487257 1.036174,7.55799123 2.37005805,6.73009995 L2.37005805,6.73009995 C3.70662416,5.90220866 4.94484762,5.8150149 4.63551527,7.69013023 L4.63551527,7.69013023 C4.32439486,9.56434666 6.79547763,8.69960028 7.72347471,7.69013023 L7.72347471,7.69013023 C8.65057776,6.67886238 11.1225546,6.52604857 10.8132222,7.69013023 L10.8132222,7.69013023 C10.5038898,8.85241409 10.658556,10.8048352 12.3572019,10.3715631 L12.3572019,10.3715631 C14.0576359,9.94098776 15.2019868,8.98994652 16.0647201,10.4344865 L16.0647201,10.4344865 C16.9265594,11.8781275 17.6104879,10.6493247 19.3091338,10.3715631 L19.3091338,10.3715631 C21.0086737,10.0955994 22.1485545,9.61468533 22.3470279,11.1239464 L22.3470279,11.1239464 C22.5463953,12.6341064 23.3545931,12.7302892 24.6902652,12.8300677 L24.6902652,12.8300677 C26.0277253,12.9289472 25.2302558,11.8044173 25.7461077,11.4933963 L25.7461077,11.4933963 C26.2610657,11.1832741 26.1734513,12.6368031 26.9816491,12.8354611 L26.9816491,12.8354611 C27.789847,13.0350179 27.8041513,10.1468369 28.937774,10.0452607 L28.937774,10.0452607 C30.0713966,9.94098776 29.9685838,11.2857493 31.1522718,11.3891233 L31.1522718,11.3891233 C32.3368538,11.4933963 32.6452922,10.2511099 33.5723952,10.2511099 L33.5723952,10.2511099 C34.4994983,10.2511099 35.2209758,11.1832741 36.7649555,10.5621309 L36.7649555,10.5621309 C38.3107233,9.94098776 38.6191616,8.90455057 38.413536,8.38678142 L38.413536,8.38678142 C38.2070165,7.86991119 10.1650547,6.04693233 4.59796625,0 L4.59796625,0 C4.59796625,0 0,3.21178671 0,4.03877909" id="path-37"></path>
        <linearGradient x1="46.3783432%" y1="55.294285%" x2="52.0588205%" y2="46.9898652%" id="linearGradient-39">
            <stop stop-color="#50740B" offset="0%"></stop>
            <stop stop-color="#A1CF48" offset="100%"></stop>
        </linearGradient>
        <path d="M26.5167504,0 C7.15039906,0.226524 -1.05674272,14.3959598 0.108170761,18.7853117 L0.108170761,18.7853117 C2.08843427,26.2525136 19.617566,26.8368016 26.5167504,26.8368016 L26.5167504,26.8368016 C33.4150408,26.8368016 50.9450665,26.2525136 52.92533,18.7853117 L52.92533,18.7853117 C54.0884555,14.3959598 45.8831017,0.226524 26.5167504,0 Z" id="path-40"></path>
        <linearGradient x1="49.9997247%" y1="100.001339%" x2="49.9997247%" y2="-0.00033361246%" id="linearGradient-42">
            <stop stop-color="#F9B156" offset="0%"></stop>
            <stop stop-color="#C36D1C" offset="100%"></stop>
        </linearGradient>
        <polygon id="path-43" points="0 0 53.0203217 0 53.0203217 18.5852155 0 18.5852155"></polygon>
    </defs>
    <g id="Page-1" stroke="none" stroke-width="1" fill="none" fill-rule="evenodd">
        <g id="Common-Dish-page" transform="translate(-281.000000, -277.000000)">
            <g id="Group-278" transform="translate(281.000000, 277.000000)">
                <g id="Group-3" transform="translate(4.597966, 35.489659)">
                    <mask id="mask-2" fill="white">
                        <use xlink:href="#path-1"></use>
                    </mask>
                    <g id="Clip-2"></g>
                    <path d="M25.9016679,5.33410085 C25.9016679,5.33410085 7.3381503,5.33410085 0,0 L0,0 C0,0 0.0554294979,3.78888357 1.85420611,5.67388685 L1.85420611,5.67388685 C4.01595652,7.93822795 12.5905422,10.6708984 25.9016679,10.6691015 L25.9016679,10.6691015 C39.2136877,10.6708984 47.7864853,7.93822795 49.9500238,5.67388685 L49.9500238,5.67388685 C51.7479064,3.78888357 51.8033359,0 51.8033359,0 L51.8033359,0 C44.4651856,5.33410085 25.9016679,5.33410085 25.9016679,5.33410085" id="Fill-1" fill="url(#linearGradient-3)" mask="url(#mask-2)"></path>
                </g>
                <path d="M54.5477218,39.6754988 C52.3850774,41.9425366 43.8113857,44.6752071 30.499366,44.6734093 C17.1882403,44.6752071 8.61454859,41.9425366 6.45190415,39.6754988 C5.410366,38.5860262 4.95530771,36.8574324 4.7550463,35.5953701 C4.70408692,35.5594139 4.64865742,35.5252555 4.59859207,35.4892993 C4.59859207,35.4892993 4.65312754,39.2790818 6.45190415,41.1631862 C8.61454859,43.4284262 17.1882403,46.1601977 30.499366,46.1584008 C43.8113857,46.1601977 52.3850774,43.4284262 54.5477218,41.1631862 C56.3464984,39.2790818 56.4010339,35.4892993 56.4010339,35.4892993 C56.3527566,35.5252555 56.2955391,35.5594139 56.2436857,35.5953701 C56.0443183,36.8574324 55.58926,38.5860262 54.5477218,39.6754988" id="Fill-4" fill="#FADAB2"></path>
                <g id="Group-8" transform="translate(1.364699, 30.833332)">
                    <mask id="mask-5" fill="white">
                        <use xlink:href="#path-4"></use>
                    </mask>
                    <g id="Clip-7"></g>
                    <path d="M0.605730652,2.46929138 C-0.0227683319,3.36729724 -0.657525485,5.68647152 1.44700739,6.12783376 L1.44700739,6.12783376 C1.88686727,6.21952204 2.24090084,6.16828447 2.53056467,6.1170469 L2.53056467,6.1170469 C3.10721025,6.01367285 3.43084699,5.91119771 3.66686937,6.94314038 L3.66686937,6.94314038 C3.99676429,8.38408471 4.89168247,8.08744614 5.96719353,7.62181347 L5.96719353,7.62181347 C6.76555711,7.27753295 7.36187122,7.19932823 7.75077173,7.79350428 L7.75077173,7.79350428 C8.30685476,8.63847476 7.85894865,9.89514361 9.30190365,9.47625399 L9.30190365,9.47625399 C10.7439646,9.05376876 11.6934183,8.21958514 12.4828416,9.39535256 L12.4828416,9.39535256 C13.2704769,10.5720189 13.2812052,9.67311414 14.7304183,9.3827679 L14.7304183,9.3827679 C16.1760554,9.08972495 16.9654787,11.2327139 18.1142998,11.2686701 L18.1142998,11.2686701 C19.2649089,11.3064241 20.3895913,10.4803306 20.8205109,10.2034679 L20.8205109,10.2034679 C20.9885875,10.0955994 21.2907676,10.2349296 21.6653637,10.3742598 L21.6653637,10.3742598 C22.2473735,10.5917948 23.0037179,10.8084308 23.6974807,10.0911049 L23.6974807,10.0911049 C24.3679988,9.39445366 24.6227957,11.0924848 25.6410892,11.1383289 L25.6410892,11.1383289 C26.6593827,11.184173 26.8828887,10.1333534 27.6776762,10.1027906 L27.6776762,10.1027906 C27.9727042,10.0902059 28.2489577,10.1872877 28.5466677,10.2834705 L28.5466677,10.2834705 C29.0473212,10.4461722 29.6096624,10.6097729 30.4276945,10.2493121 L30.4276945,10.2493121 C31.7302877,9.67491195 32.8424538,6.39660628 32.6502386,5.97052542 L32.6502386,5.97052542 C32.4544473,5.54714128 7.59610555,4.85858023 2.61728501,0 L2.61728501,0 C2.61728501,0 1.0071475,1.89848686 0.605730652,2.46929138" id="Fill-6" fill="url(#linearGradient-6)" mask="url(#mask-5)"></path>
                </g>
                <g id="Group-13" transform="translate(1.378277, 30.833961)">
                    <path d="M32.6347827,5.97016586 C32.4935269,6.94278081 31.5261927,9.394993 30.4140267,9.8848961 C29.1105395,10.4574984 28.4587958,9.70511515 27.6631143,9.73657681 C26.8701149,9.76893738 26.6457149,10.820656 25.6274213,10.7739129 C24.6091278,10.7289677 24.3543309,9.02913877 23.6838128,9.72668886 C22.5457201,10.9042541 21.2377627,9.56308819 20.8068431,9.83995086 C20.3759234,10.1159146 19.251241,10.9411092 18.1006319,10.9042541 C16.9518109,10.867399 16.1623876,8.72441005 14.7167505,9.01835191 C13.2675373,9.30869815 13.256809,10.2085018 12.4691738,9.03093657 C11.6806445,7.85606805 10.7302968,8.68845386 9.28912983,9.1109391 C7.84438679,9.53072762 8.29318692,8.27405877 7.73710389,7.42729048 C7.3490974,6.83401334 6.75278329,6.91221805 5.95352569,7.25649858 C4.87801463,7.72303015 3.98309644,8.01876981 3.65320153,6.57872439 C3.29916796,5.02631586 2.74755506,6.03848262 1.43423357,5.76341777 C0.432926508,5.55307405 0.0628005062,4.91664948 0.00558295998,4.21370596 C-0.0471644654,5.05418191 0.262167894,5.88117429 1.43423357,6.1274742 C2.74755506,6.40253905 3.29916796,5.39037229 3.65320153,6.94278081 C3.98309644,8.38372515 4.87801463,8.08618767 5.95352569,7.62145391 C6.75278329,7.27627448 7.3490974,7.19896867 7.73710389,7.79224581 C8.29318692,8.63811519 7.84438679,9.89478405 9.28912983,9.47499553 C10.7302968,9.05340919 11.6806445,8.21922558 12.4691738,9.394993 C13.256809,10.5716593 13.2675373,9.67185567 14.7167505,9.38150943 C16.1623876,9.08936538 16.9518109,11.2323543 18.1006319,11.2692094 C19.251241,11.3060645 20.3759234,10.479971 20.8068431,10.2031084 C21.2377627,9.92624572 22.5457201,11.2692094 23.6838128,10.0907453 C24.3543309,9.3940941 24.6091278,11.0921252 25.6274213,11.1379693 C26.6457149,11.1838135 26.8701149,10.1329938 27.6631143,10.1024311 C28.4587958,10.0691716 29.1105395,10.8215549 30.4140267,10.2489525 C31.7166199,9.67365348 32.8287859,6.39624672 32.6365707,5.97016586 L32.6347827,5.97016586 Z" id="Fill-9" fill="#2E4206"></path>
                    <path d="M2.60379597,0 C2.60379597,0 2.50455929,0.117756524 2.34989311,0.30023419 C2.48667881,1.16767728 2.77991873,2.19872105 3.21977862,2.718288 C5.69175542,5.63523395 15.8094268,7.76653714 29.1205525,7.76563852 C30.1772891,7.76563852 31.2080989,7.73956999 32.2254984,7.7027149 C32.5455591,6.89280171 32.7207878,6.15749761 32.6367495,5.97052542 C32.4409583,5.54624238 7.58261651,4.85768133 2.60379597,0" id="Fill-11" fill="#E2EBD1"></path>
                </g>
                <g id="Group-16" transform="translate(17.987105, 31.682797)">
                    <mask id="mask-8" fill="white">
                        <use xlink:href="#path-7"></use>
                    </mask>
                    <g id="Clip-15"></g>
                    <path d="M0.133870975,5.04824914 C-0.0851649443,5.53365771 -0.215692472,7.06988595 1.24693105,7.70810833 L1.24693105,7.70810833 C2.52091548,8.26363147 3.68940506,8.02721952 4.59952165,7.79080757 L4.59952165,7.79080757 C5.11984371,7.65597185 5.55702152,7.52023723 5.88065827,7.5328219 L5.88065827,7.5328219 C6.76753024,7.56967699 7.0142809,8.77061376 8.15237366,8.71937618 L8.15237366,8.71937618 C9.28957239,8.66364409 10.6940843,7.86271995 11.7749596,8.00654471 L11.7749596,8.00654471 C12.8558348,8.14767276 12.8907017,9.4205219 13.5415513,9.88166004 L13.5415513,9.88166004 C14.5437524,10.5935926 15.3573144,10.1432413 15.9670388,9.69109223 L15.9670388,9.69109223 C16.3908063,9.37737447 16.7171251,9.06455561 16.9397371,9.14096252 L16.9397371,9.14096252 C18.1770666,9.5715379 18.0375988,10.0767224 19.2069824,10.6070762 L19.2069824,10.6070762 C20.0044519,10.9693348 20.560535,9.79356737 21.7111441,8.90544947 L21.7111441,8.90544947 C22.3047761,8.44610914 23.1478409,8.78499623 23.9631909,9.12208552 L23.9631909,9.12208552 C24.8679434,9.4960299 25.7387229,9.86997428 26.2018274,9.15894061 L26.2018274,9.15894061 C27.0824412,7.81058347 28.1436479,8.76522033 29.7537854,9.24613437 L29.7537854,9.24613437 C31.3648169,9.72525061 31.5105429,8.45330038 32.0281829,7.42495333 L32.0281829,7.42495333 C32.6182388,6.25278152 33.4452111,5.85187 34.2945341,6.8541488 L34.2945341,6.8541488 C35.142963,7.85822542 36.8425029,8.40655733 37.2492839,6.97280423 L37.2492839,6.97280423 C37.7472554,5.22173776 38.2085719,5.29814466 39.4548415,6.14131733 L39.4548415,6.14131733 C40.7011112,6.9862878 41.7971848,4.44778076 41.8287496,3.65494676 L41.8287496,3.65494676 C41.8606606,2.86211276 39.0462725,0 39.0462725,0 L39.0462725,0 C35.3047814,4.096309 0.351118845,4.56104276 0.133870975,5.04824914" id="Fill-14" fill="url(#linearGradient-9)" mask="url(#mask-8)"></path>
                </g>
                <g id="Group-21" transform="translate(17.990685, 31.682617)">
                    <path d="M39.4512613,5.59109772 C38.2040976,4.74612725 37.7436752,4.67061925 37.2457037,6.42348353 C36.8389227,7.85543882 35.1393828,7.3053091 34.2918479,6.3030303 C33.4416309,5.30075149 32.6146586,5.6998652 32.0246026,6.87473372 C31.5069626,7.90218187 31.3612367,9.17503101 29.7493111,8.69411696 C28.1400676,8.21410182 27.078861,7.25946496 26.1982472,8.60961991 C25.3176334,9.95887596 22.9609857,7.38621053 21.7075638,8.35253315 C20.5569547,9.24334777 20.0008717,10.4182163 19.2034022,10.0559577 C18.0340186,9.52470496 18.1725923,9.01952048 16.9361569,8.58984401 C16.3934842,8.40107401 15.237511,10.5395684 13.5388651,9.32964263 C12.8871215,8.86760558 12.8522545,7.59655425 11.7713793,7.45452729 C10.6905041,7.31160144 9.28599216,8.11162668 8.14879343,8.16556096 C7.01070067,8.21859634 6.76305598,7.01676068 5.87618401,6.98170339 C4.98841802,6.9466461 3.24685896,8.02982634 1.24424485,7.15519201 C0.386875677,6.78214653 0.083801487,6.10167563 0.0185377234,5.50480287 C-0.0655005476,6.1708913 0.10168197,7.2109241 1.24424485,7.70801844 C3.24685896,8.58085496 4.98841802,7.49767472 5.87618401,7.53273201 C6.76305598,7.5695871 7.01070067,8.77052387 8.14879343,8.71928629 C9.28599216,8.6644531 10.6905041,7.86263006 11.7713793,8.00645482 C12.8522545,8.14848177 12.8871215,9.42043201 13.5388651,9.88157015 C15.237511,11.0887992 16.3934842,8.95210263 16.9361569,9.14087263 C18.1725923,9.57234691 18.0340186,10.0766325 19.2034022,10.6069863 C20.0008717,10.9692449 20.5569547,9.79347748 21.7075638,8.90535958 C22.9609857,7.93723915 25.3176334,10.5117024 26.1982472,9.15974963 C27.078861,7.81049358 28.1400676,8.76513044 29.7493111,9.24514558 C31.3612367,9.72605963 31.5069626,8.45410939 32.0246026,7.42486344 C32.6146586,6.25179272 33.4416309,5.85178011 34.2918479,6.85405891 C35.1393828,7.85813553 36.8389227,8.40736634 37.2457037,6.97361325 C37.7436752,5.22164787 38.2040976,5.29805477 39.4512613,6.14122744 C40.698425,6.98619791 41.7936046,4.44858977 41.8250232,3.65575577 C41.8275775,3.6045182 41.7873464,3.52451568 41.7685719,3.45709782 C41.5262914,4.45937663 40.548229,6.33269415 39.4512613,5.59109772" id="Fill-17" fill="#2E4206"></path>
                    <path d="M38.4105278,1.58117348 C38.7583032,1.21711705 38.9925375,0.701145714 39.1463097,0.106969667 C39.0890921,0.0467430476 39.0426029,0 39.0426029,0 C35.3002177,4.096309 0.347449212,4.56014385 0.130201341,5.04824914 C0.0443750216,5.23701914 0.00593198274,5.81771162 0.0363288041,6.20873519 C3.71792029,6.7786408 7.92072786,6.91797104 12.5079658,6.91707645 C25.8208796,6.91797104 36.2478833,3.84731238 38.4105278,1.58117348" id="Fill-19" fill="#E2EBD1"></path>
                </g>
                <g id="Group-24" transform="translate(3.600686, 25.025509)">
                    <mask id="mask-11" fill="white">
                        <use xlink:href="#path-10"></use>
                    </mask>
                    <g id="Clip-23"></g>
                    <path d="M26.8989483,5.46174533 C26.8989483,5.46174533 7.71944805,5.33320195 0.381297749,0 L0.381297749,0 C0.381297749,0 -0.80060219,5.93546814 0.997280394,7.81867361 L0.997280394,7.81867361 C3.16081886,10.0857114 13.5878226,13.1545723 26.8989483,13.1536736 L26.8989483,13.1536736 C40.2109681,13.1545723 50.6379718,10.0857114 52.8006163,7.81867361 L52.8006163,7.81867361 C54.5993929,5.93546814 53.4165989,0 53.4165989,0 L53.4165989,0 C46.0793426,5.33320195 26.8989483,5.46174533 26.8989483,5.46174533" id="Fill-22" fill="url(#linearGradient-12)" mask="url(#mask-11)"></path>
                </g>
                <path d="M56.4012127,32.076068 C54.2385683,34.342207 43.8115645,37.4128656 30.4986508,37.4119667 C17.1884191,37.4128656 6.76141531,34.342207 4.59877087,32.076068 C3.88355154,31.3272804 3.64305905,29.9384725 3.6081921,28.5379789 C3.56796102,30.1784801 3.75212999,31.9583115 4.59877087,32.8437327 C6.76141531,35.1107705 17.1884191,38.1805303 30.4986508,38.1796316 C43.8115645,38.1805303 54.2385683,35.1107705 56.4012127,32.8437327 C57.2469596,31.9583115 57.4302345,30.179379 57.3908975,28.5388778 C57.3551365,29.9402703 57.1164321,31.3272804 56.4012127,32.076068" id="Fill-25" fill="#D6675C"></path>
                <g id="Group-29" transform="translate(32.078529, 20.139961)">
                    <mask id="mask-14" fill="white">
                        <use xlink:href="#path-13"></use>
                    </mask>
                    <g id="Clip-28"></g>
                    <path d="M9.54723631,0.467430476 C3.45267361,1.89489124 -0.767120418,6.15120528 0.117069475,9.97514614 L0.117069475,9.97514614 C1.00215339,13.7981881 6.6604323,15.7443169 12.754101,14.317755 L12.754101,14.317755 C18.8486637,12.8911932 23.0684577,8.63398023 22.1824797,4.81003938 L22.1824797,4.81003938 C21.4949752,1.83736133 17.9224546,0 13.5023992,0 L13.5023992,0 C12.237355,0 10.903471,0.150117095 9.54723631,0.467430476" id="Fill-27" fill="url(#linearGradient-15)" mask="url(#mask-14)"></path>
                </g>
                <path d="M54.3302952,25.4097903 C54.3875127,28.9631609 50.3876486,32.652266 44.7973156,33.9628691 C38.7027529,35.3885321 33.044474,33.4442011 32.158496,29.6202602 C32.1236291,29.4683453 32.1102187,29.3146326 32.0914442,29.160021 C32.0959143,29.4800311 32.120947,29.7991423 32.195151,30.1146579 C33.0802349,33.9376998 38.7394079,35.8838286 44.8330765,34.4572668 C50.6844646,33.086437 54.7942937,29.1087834 54.3302952,25.4097903" id="Fill-30" fill="#EE4230"></path>
                <g id="Group-34" transform="translate(34.358626, 21.056844)">
                    <mask id="mask-17" fill="white">
                        <use xlink:href="#path-16"></use>
                    </mask>
                    <g id="Clip-33"></g>
                    <path d="M7.46471788,0.365854238 C2.69867509,1.48319286 -0.600274058,4.80914047 0.0917006415,7.79979661 L0.0917006415,7.79979661 C0.782781316,10.7904528 5.2082009,12.3113996 9.97334967,11.1949599 L9.97334967,11.1949599 C14.7393925,10.080318 18.0401297,6.75077476 17.3454729,3.76101752 L17.3454729,3.76101752 C16.8081644,1.43644981 14.0143389,0 10.5571474,0 L10.5571474,0 C9.56835673,0 8.52503053,0.117756524 7.46471788,0.365854238" id="Fill-32" fill="url(#linearGradient-18)" mask="url(#mask-17)"></path>
                </g>
                <g id="Group-37" transform="translate(7.934549, 23.117134)">
                    <mask id="mask-20" fill="white">
                        <use xlink:href="#path-19"></use>
                    </mask>
                    <g id="Clip-36"></g>
                    <path d="M0.000809865066,5.46893657 C-0.0689240193,8.61240652 4.37348203,11.2632767 9.92626608,11.3882244 L9.92626608,11.3882244 C15.4772621,11.5158689 20.0332092,9.06994904 20.1029431,5.92378238 L20.1029431,5.92378238 C20.174465,2.78031243 15.732059,0.13034119 10.181063,0.00449452381 L10.181063,0.00449452381 C10.0433832,0.00179780952 9.90659755,0 9.77070588,0 L9.77070588,0 C4.4056669,0.000898904761 0.0705437495,2.40367133 0.000809865066,5.46893657" id="Fill-35" fill="url(#linearGradient-21)" mask="url(#mask-20)"></path>
                </g>
                <path d="M17.8612617,34.0116797 C12.4926466,33.8894286 8.17540392,31.4075526 7.956368,28.4007162 C7.95189788,28.4627406 7.93669947,28.524765 7.93491142,28.5858905 C7.86517754,31.7293605 12.3084776,34.3802306 17.8612617,34.5060773 C23.4122577,34.631924 27.9682048,32.186903 28.0379387,29.0407363 C28.0406207,28.9364634 28.0245283,28.8339882 28.0173761,28.7306142 C27.7750956,31.7841937 23.3013987,34.1348296 17.8612617,34.0116797" id="Fill-38" fill="#EE4230"></path>
                <g id="Group-42" transform="translate(10.130427, 24.229978)">
                    <mask id="mask-23" fill="white">
                        <use xlink:href="#path-22"></use>
                    </mask>
                    <g id="Clip-41"></g>
                    <path d="M0.000654314794,4.27608995 C-0.0547751831,6.73459447 3.41850868,8.80656995 7.76078402,8.90544947 L7.76078402,8.90544947 C12.1012713,9.00343009 15.6639576,7.08876295 15.7184931,4.63025843 L15.7184931,4.63025843 C15.7739226,2.17355171 12.3015327,0.0997784285 7.9601514,0.00359561905 L7.9601514,0.00359561905 C7.85108046,0.000898904761 7.74290353,0 7.63472661,0 L7.63472661,0 C3.4417533,0 0.0542957643,1.88050876 0.000654314794,4.27608995" id="Fill-40" fill="url(#linearGradient-24)" mask="url(#mask-23)"></path>
                </g>
                <g id="Group-45" transform="translate(21.409114, 25.092028)">
                    <mask id="mask-26" fill="white">
                        <use xlink:href="#path-25"></use>
                    </mask>
                    <g id="Clip-44"></g>
                    <path d="M0,2.68682633 C0,2.68682633 1.66922552,5.48961138 1.98392202,6.12873266 L1.98392202,6.12873266 C3.17386818,8.53240399 4.81619056,10.0479574 7.2640287,8.91713523 L7.2640287,8.91713523 C8.47990156,8.35352195 11.2191916,7.74676123 13.0653515,7.64248828 L13.0653515,7.64248828 C13.6509373,7.61012771 14.3080451,7.65147733 14.9767751,7.69192804 L14.9767751,7.69192804 C16.4125779,7.7791218 17.9002341,7.86631557 18.8496878,7.229891 L18.8496878,7.229891 C19.8286442,6.57369052 21.0632916,6.59526423 21.9421173,6.61593904 L21.9421173,6.61593904 C22.3104553,6.62402919 22.6153175,6.63301823 22.8137909,6.59166861 L22.8137909,6.59166861 C23.483415,6.45233838 26.4184963,6.29862566 23.7149673,1.94972443 L23.7149673,1.94972443 C22.819155,0.50788119 19.9055303,0 16.4134719,0 L16.4134719,0 C9.3694556,0 -0.0321024579,2.06388533 0,2.68682633" id="Fill-43" fill="url(#linearGradient-27)" mask="url(#mask-26)"></path>
                </g>
                <g id="Group-50" transform="translate(21.409037, 27.021706)">
                    <path d="M23.020656,3.73494928 C22.3501379,3.87248171 20.4458664,3.44190633 19.0556589,4.37317166 C17.6654513,5.3053359 15.1165884,4.68419271 13.2713225,4.78576895 C11.4260567,4.88734519 8.68676666,5.49590371 7.46910575,6.059517 C5.02216163,7.19123809 3.37983925,5.67388685 2.19078712,3.27111443 C1.9198978,2.72368143 0.66289983,0.599569476 0.307078214,0 C0.110392899,0.0925871904 -0.00314816872,0.177084238 0.000345911279,0.24360319 C0.000345911279,0.24360319 1.66867701,3.04548933 1.98426754,3.68371171 C3.17421369,6.08918085 4.81653607,7.60473428 7.2634802,6.47301319 C8.48024708,5.9093999 11.2195371,5.30263919 13.064803,5.20016404 C14.9100688,5.09679 17.4589317,5.71793319 18.8491393,4.78576895 C20.2402409,3.85450362 22.1445123,4.28867462 22.8141364,4.14844547 C23.2173413,4.06484733 24.4358962,3.96956343 24.7550629,2.96099228 C24.2830181,3.5875289 23.3603852,3.66393581 23.020656,3.73494928" id="Fill-46" fill="#873A00"></path>
                    <path d="M22.8137788,4.14844547 C22.1441547,4.28867462 20.2398833,3.85450362 18.8487817,4.78576895 C17.4594681,5.71793319 14.9097112,5.09679 13.0653394,5.20016404 C11.2191795,5.30263919 8.48078349,5.9093999 7.26312259,6.47301319 C4.81617846,7.60473428 3.17385608,6.08918085 1.98390993,3.68371171 C1.73358316,3.17762833 0.635721495,1.31599657 0.194967585,0.569905619 C0.071592251,0.642716904 -0.00261175422,0.706539142 0,0.757776714 C0,0.757776714 1.66921342,3.56056176 1.98390993,4.19878414 C3.17385608,6.60245547 4.81617846,8.1180089 7.26312259,6.98718671 C8.48078349,6.42357342 11.2191795,5.81591381 13.0653394,5.71253976 C14.9097112,5.61096352 17.4594681,6.23210671 18.8487817,5.29994247 C20.2398833,4.36867714 22.1441547,4.80194923 22.8137788,4.66172009 C23.3063861,4.56014385 25.0130782,4.44328624 24.8154989,2.66884824 C24.6581507,3.95158533 23.2527447,4.05765609 22.8137788,4.14844547" id="Fill-48" fill="#F2CC9D"></path>
                </g>
                <g id="Group-53" transform="translate(1.311030, 21.327414)">
                    <mask id="mask-29" fill="white">
                        <use xlink:href="#path-28"></use>
                    </mask>
                    <g id="Clip-52"></g>
                    <path d="M0.117620536,6.40739314 C-0.79517813,7.63170142 3.80904629,7.47888761 6.87018501,8.28160957 L6.87018501,8.28160957 C9.93311178,9.08253371 16.7437878,10.3778555 18.6230266,10.6160652 L18.6230266,10.6160652 C20.4995833,10.854275 21.1003676,1.58746581 21.1003676,1.58746581 L21.1003676,1.58746581 L5.06336218,0 C5.06336218,0 1.0304192,5.18398376 0.117620536,6.40739314" id="Fill-51" fill="url(#linearGradient-30)" mask="url(#mask-29)"></path>
                </g>
                <g id="Group-58" transform="translate(1.325543, 22.910476)">
                    <path d="M6.8560299,6.29772676 C9.91806265,7.0986509 16.7296327,8.39487157 18.6088715,8.63308133 C20.2511939,8.84162723 20.9154538,1.77264019 21.0558156,0.000898904761 L21.0388292,0 C20.8734347,2.00905214 20.2020225,8.63308133 18.6088715,8.43082776 C16.7296327,8.19261799 9.91806265,6.89729623 6.8560299,6.09547319 C4.37153676,5.44646395 0.877690348,5.42219352 0.134756272,4.78217333 C0.125816031,4.79385909 0.112405668,4.81273609 0.103465427,4.82442185 C0.0846909192,4.851389 0.0802207984,4.87296271 0.0650223877,4.89813204 C0.59428469,5.62085147 4.26872398,5.62085147 6.8560299,6.29772676" id="Fill-54" fill="#873A00"></path>
                    <path d="M18.6084245,8.63272177 C16.7291857,8.394512 9.91761563,7.09829134 6.85558289,6.2973672 C4.27095904,5.62049191 0.599201823,5.62049191 0.0645753756,4.9013681 C-0.588956285,6.03758372 3.86328403,5.91533267 6.85558289,6.69827872 C9.91761563,7.49920286 16.7291857,8.79542353 18.6084245,9.03273438 C20.4858752,9.27094415 21.0857654,0.0041349619 21.0857654,0.0041349619 L21.0553686,0.000539342857 C20.9150068,1.77228063 20.2516409,8.84126767 18.6084245,8.63272177" id="Fill-56" fill="#F2CC9D"></path>
                </g>
                <g id="Group-61" transform="translate(44.035160, 20.699080)">
                    <mask id="mask-32" fill="white">
                        <use xlink:href="#path-31"></use>
                    </mask>
                    <g id="Clip-60"></g>
                    <path d="M0,2.44951547 C0,2.44951547 4.18671514,9.01691366 5.61983586,9.23984204 L5.61983586,9.23984204 C7.40341406,9.51760361 9.25404407,8.51622371 11.5320176,7.65776966 L11.5320176,7.65776966 C13.8099912,6.80021452 16.2703457,5.7772609 15.5122132,4.29406804 L15.5122132,4.29406804 L12.3125007,0 L0,2.44951547 Z" id="Fill-59" fill="url(#linearGradient-33)" mask="url(#mask-32)"></path>
                </g>
                <g id="Group-66" transform="translate(44.035428, 23.083155)">
                    <path d="M5.61608096,6.60605109 C7.39965916,6.88291376 9.25118319,5.88153385 11.5282627,5.02307981 C13.5237247,4.27339324 15.6264695,3.39066876 15.6184463,2.18883309 C15.6139531,2.16815828 15.6041189,2.15107909 15.5978607,2.133101 C15.3323355,3.20819109 13.3797868,4.01720538 11.5282627,4.71475547 C9.25118319,5.57231062 7.39965916,6.57369052 5.61608096,6.29503004 C4.42077066,6.10715895 1.32029488,1.52634028 0.31898782,0 L0.139288964,0.0359561905 C0.868812678,1.15958714 4.33494434,6.40559533 5.61608096,6.60605109" id="Fill-62" fill="#873A00"></path>
                    <path d="M11.5320176,5.02334948 C9.25404407,5.88180352 7.40341406,6.88228452 5.61983586,6.60632076 C4.33869924,6.40406719 0.869885507,1.1571601 0.143043865,0.0362258619 L0,0.0649908142 C0,0.0649908142 4.18582111,6.632389 5.61983586,6.85531738 C7.40341406,7.13307895 9.25404407,6.13169905 11.5320176,5.27414391 C13.5900612,4.499288 15.7893607,3.58869748 15.6373766,2.32663519 C15.4934387,3.4601541 13.4505935,4.30152895 11.5320176,5.02334948" id="Fill-64" fill="#F2CC9D"></path>
                </g>
                <g id="Group-69" transform="translate(27.701790, 17.707525)">
                    <mask id="mask-35" fill="white">
                        <use xlink:href="#path-34"></use>
                    </mask>
                    <g id="Clip-68"></g>
                    <path d="M0.0460376035,7.7036138 C-0.139025397,8.21419171 0.206067928,11.3270989 1.59001733,11.9374552 L1.59001733,11.9374552 C2.97396672,12.5514072 3.61945217,11.6327265 4.45000061,11.6327265 L4.45000061,11.6327265 C5.27965503,11.6327265 5.55769654,12.8570348 6.61622115,12.7563575 L6.61622115,12.7563575 C7.6765338,12.6547812 7.87053704,10.6394368 8.60006076,11.4277762 L8.60006076,11.4277762 C9.34746495,12.2340938 10.1199018,11.9527366 10.7162159,11.6713794 L10.7162159,11.6713794 C11.1077985,11.4871039 11.422495,11.3028285 11.604876,11.4232817 L11.604876,11.4232817 C12.0661924,11.7289093 13.273125,12.6466911 14.4702234,12.5469127 L14.4702234,12.5469127 C15.6673217,12.4480331 16.3995275,9.88795237 17.9202626,10.1612194 L17.9202626,10.1612194 C19.4436798,10.4344865 19.4919571,11.4933963 20.265288,10.0686322 L20.265288,10.0686322 C21.0359368,8.64566599 22.0631706,9.58322366 23.5847997,10.0093045 L23.5847997,10.0093045 C25.1073228,10.4353854 24.5861067,8.97646295 25.1296734,7.95350933 L25.1296734,7.95350933 C25.5105277,7.23438552 26.1354506,7.29820776 26.9829855,7.6658598 L26.9829855,7.6658598 C28.1219723,8.16115633 29.0687439,8.46768285 29.3521495,6.75616819 L29.3521495,6.75616819 C29.6579058,4.91161562 30.257796,5.36556252 31.6319111,5.68916823 L31.6319111,5.68916823 C33.626479,6.15749761 33.5478049,3.38437643 32.8522541,2.35872609 L32.8522541,2.35872609 C32.4088181,1.70612124 29.3521495,0 29.3521495,0 L29.3521495,0 C24.3652828,5.96243528 0.23020658,7.1930359 0.0460376035,7.7036138" id="Fill-67" fill="url(#linearGradient-36)" mask="url(#mask-35)"></path>
                </g>
                <g id="Group-74" transform="translate(27.703315, 17.786988)">
                    <path d="M31.6305648,5.32726918 C30.2564497,5.00546127 29.6565595,4.55421108 29.3508032,6.39516803 C29.0673976,8.10848051 28.120626,7.80195399 26.9816392,7.30485965 C26.1341043,6.93810651 25.5082874,6.87518318 25.1283271,7.59430699 C24.5847604,8.61815951 25.1050825,10.0770819 23.5834534,9.65010217 C22.0618242,9.22222351 21.0336965,8.28646365 20.2630476,9.71032879 C19.4906108,11.1350928 19.4414394,10.0743852 17.9189163,9.80201708 C16.3981812,9.52875003 15.6659754,12.0879319 14.4688771,12.1877103 C13.2717787,12.284792 12.0639521,11.369707 11.6035296,11.0622816 C11.1422132,10.755755 9.83425582,12.4016496 8.59871443,11.0685739 C7.86919071,10.2802344 7.67518747,12.2928822 6.61487482,12.3953573 C5.55545619,12.4978325 5.27741468,11.2735242 4.44865428,11.2735242 C3.61810584,11.2735242 2.97172637,12.1922048 1.58777697,11.5791518 C0.463094581,11.0793607 0.031280912,8.94625975 0.00714225967,7.88645103 C-0.0509693107,8.78895141 0.354023633,11.3112782 1.58777697,11.8587112 C2.97172637,12.4717642 3.61810584,11.5530836 4.44865428,11.5530836 C5.27741468,11.5530836 5.55545619,12.7773918 6.61487482,12.6767145 C7.67518747,12.5751383 7.86919071,10.5597938 8.59871443,11.3481333 C9.83425582,12.6821079 11.1422132,11.03891 11.6035296,11.3436387 C12.0639521,11.6492664 13.2717787,12.5670481 14.4688771,12.4672697 C15.6659754,12.3683902 16.3981812,9.80741051 17.9189163,10.0815765 C19.4414394,10.3548435 19.4906108,11.4137533 20.2630476,9.98988817 C21.0336965,8.56692194 22.0618242,9.5035807 23.5834534,9.92966156 C25.1050825,10.3557424 24.5847604,8.89771889 25.1283271,7.87386637 C25.5082874,7.15474256 26.1341043,7.2185648 26.9816392,7.58711575 C28.120626,8.08151337 29.0673976,8.38803989 29.3508032,6.67652522 C29.6565595,4.83197265 30.2564497,5.28591956 31.6305648,5.60862637 C32.9143835,5.90886056 33.3354689,4.87152446 33.2898737,3.81800808 C33.2523246,4.7645548 32.7990544,5.60233403 31.6305648,5.32726918" id="Fill-70" fill="#2E4206"></path>
                    <path d="M0.0446018719,7.62451019 C-0.0430124957,7.86631557 -0.00635750513,8.69151014 0.197480003,9.55715542 C1.16481414,9.57872914 2.04542794,9.58681928 2.79551421,9.58681928 C9.69469865,9.58681928 27.2238303,9.00163228 29.2049879,1.53443043 C29.3176349,1.10745067 29.3408795,0.587883714 29.2747218,0 C24.1367649,5.89232071 0.228770849,7.116629 0.0446018719,7.62451019" id="Fill-72" fill="#E2EBD1"></path>
                </g>
                <g id="Group-77" transform="translate(0.000000, 17.707525)">
                    <mask id="mask-38" fill="white">
                        <use xlink:href="#path-37"></use>
                    </mask>
                    <g id="Clip-76"></g>
                    <path d="M0,4.03877909 C0,4.86487257 1.036174,7.55799123 2.37005805,6.73009995 L2.37005805,6.73009995 C3.70662416,5.90220866 4.94484762,5.8150149 4.63551527,7.69013023 L4.63551527,7.69013023 C4.32439486,9.56434666 6.79547763,8.69960028 7.72347471,7.69013023 L7.72347471,7.69013023 C8.65057776,6.67886238 11.1225546,6.52604857 10.8132222,7.69013023 L10.8132222,7.69013023 C10.5038898,8.85241409 10.658556,10.8048352 12.3572019,10.3715631 L12.3572019,10.3715631 C14.0576359,9.94098776 15.2019868,8.98994652 16.0647201,10.4344865 L16.0647201,10.4344865 C16.9265594,11.8781275 17.6104879,10.6493247 19.3091338,10.3715631 L19.3091338,10.3715631 C21.0086737,10.0955994 22.1485545,9.61468533 22.3470279,11.1239464 L22.3470279,11.1239464 C22.5463953,12.6341064 23.3545931,12.7302892 24.6902652,12.8300677 L24.6902652,12.8300677 C26.0277253,12.9289472 25.2302558,11.8044173 25.7461077,11.4933963 L25.7461077,11.4933963 C26.2610657,11.1832741 26.1734513,12.6368031 26.9816491,12.8354611 L26.9816491,12.8354611 C27.789847,13.0350179 27.8041513,10.1468369 28.937774,10.0452607 L28.937774,10.0452607 C30.0713966,9.94098776 29.9685838,11.2857493 31.1522718,11.3891233 L31.1522718,11.3891233 C32.3368538,11.4933963 32.6452922,10.2511099 33.5723952,10.2511099 L33.5723952,10.2511099 C34.4994983,10.2511099 35.2209758,11.1832741 36.7649555,10.5621309 L36.7649555,10.5621309 C38.3107233,9.94098776 38.6191616,8.90455057 38.413536,8.38678142 L38.413536,8.38678142 C38.2070165,7.86991119 10.1650547,6.04693233 4.59796625,0 L4.59796625,0 C4.59796625,0 0,3.21178671 0,4.03877909" id="Fill-75" fill="url(#linearGradient-39)" mask="url(#mask-38)"></path>
                </g>
                <g id="Group-87" transform="translate(0.000358, 17.707974)">
                    <path d="M38.2689723,9.38636352 C38.4862202,9.00253118 38.5112529,8.63398023 38.4129102,8.38678142 C38.2063906,7.86991119 10.1644289,6.04693233 4.59823446,0 C4.59823446,0 4.35684793,0.166297381 3.99745022,0.428777571 C3.97509962,0.871937618 4.00102632,1.27464695 4.09132276,1.61353405 C4.72876198,4.01540757 6.98170287,5.70444962 9.96774356,6.8919028 C10.280652,6.91437542 10.5318728,7.0051648 10.6811748,7.16337204 C16.9625886,9.41512847 25.9958087,9.6659229 30.5007964,9.6659229 C32.4417229,9.6659229 35.2266081,9.61917985 38.2689723,9.38636352" id="Fill-78" fill="#E2EBD1"></path>
                    <g id="Group-86" transform="translate(0.000000, 3.975137)" fill="#2E4206">
                        <path d="M2.37005805,2.48187605 C1.13183459,3.25043962 0.152878131,0.993289761 0.0160924349,0 C0.0125163382,0.0206748095 0,0.0449452381 0,0.0629233333 C0,0.889915714 1.036174,3.58303438 2.37005805,2.75424419 C3.50904482,2.04860395 4.56846345,1.89399233 4.66591209,3.0212189 C4.71687146,1.60724171 3.59218907,1.72499824 2.37005805,2.48187605" id="Fill-80"></path>
                        <path d="M36.7646873,6.31363737 C35.2198135,6.93478056 34.4992301,6.00351523 33.572127,6.00351523 C32.645024,6.00351523 32.3365856,7.24670051 31.1528976,7.14242756 C29.9674216,7.03905351 30.0711284,5.69339309 28.9375058,5.79766604 C27.8047772,5.90014118 27.7895788,8.78742327 26.9813809,8.58786642 C26.1731831,8.38920847 26.2607974,6.93478056 25.7458395,7.24670051 C25.2308816,7.55682266 26.0274571,8.68135251 24.689997,8.58247299 C23.3543249,8.48269456 22.5461271,8.38741066 22.3467597,6.87725066 C22.1482863,5.36798956 21.0084055,5.84800471 19.3097596,6.12486737 C17.6102197,6.40352785 16.9271852,7.63143175 16.0653459,6.1868918 C15.2017186,4.74325075 14.0573677,5.69339309 12.3569337,6.12486737 C11.1428489,6.43588842 10.7253396,5.52260118 10.6940488,4.55448075 C10.6502416,5.61608728 11.0284138,6.73702151 12.3569337,6.39633661 C14.0573677,5.96486232 15.2017186,5.01471999 16.0653459,6.45836104 C16.9271852,7.90290099 17.6102197,6.67409818 19.3097596,6.39633661 C21.0084055,6.11947394 22.1482863,5.6394588 22.3467597,7.1487199 C22.5461271,8.65798099 23.3543249,8.7550627 24.689997,8.85394223 C26.0274571,8.95372066 25.2308816,7.8291908 25.7458395,7.51816975 C26.2607974,7.2071487 26.1731831,8.6606777 26.9813809,8.86023456 C27.7895788,9.05979142 27.8047772,6.17161042 28.9375058,6.07003418 C30.0711284,5.96486232 29.9674216,7.30962385 31.1528976,7.4138968 C32.3365856,7.51816975 32.645024,6.27498447 33.572127,6.27498447 C34.4992301,6.27498447 35.2198135,7.2071487 36.7646873,6.58690442 C38.1352263,6.0349769 38.531279,5.16034256 38.4597571,4.60841504 C38.3882352,5.14685899 37.9260247,5.84800471 36.7646873,6.31363737" id="Fill-82"></path>
                        <path d="M10.8125964,3.44226589 C11.1219287,2.27818423 8.64995195,2.43099804 7.72284889,3.44226589 C6.84491717,4.40049837 4.60628068,5.19602908 4.63757152,3.68407127 C4.63578347,3.69395923 4.6366775,3.70204937 4.63488945,3.71463404 C4.32376904,5.58885046 6.79574584,4.72500299 7.72284889,3.71463404 C8.57217184,2.78696432 10.6927972,2.59549761 10.8081263,3.4629407 C10.8099143,3.45574946 10.8108083,3.44765932 10.8125964,3.44226589" id="Fill-84"></path>
                    </g>
                </g>
                <g id="Group-90" transform="translate(3.982884, 0.000000)">
                    <mask id="mask-41" fill="white">
                        <use xlink:href="#path-40"></use>
                    </mask>
                    <g id="Clip-89"></g>
                    <path d="M26.5167504,0 C7.15039906,0.226524 -1.05674272,14.3959598 0.108170761,18.7853117 L0.108170761,18.7853117 C2.08843427,26.2525136 19.617566,26.8368016 26.5167504,26.8368016 L26.5167504,26.8368016 C33.4150408,26.8368016 50.9450665,26.2525136 52.92533,18.7853117 L52.92533,18.7853117 C54.0884555,14.3959598 45.8831017,0.226524 26.5167504,0 Z" id="Fill-88" fill="url(#linearGradient-42)" mask="url(#mask-41)"></path>
                </g>
                <g id="Group-277" transform="translate(3.986301, 0.000000)">
                    <g id="Group-93" transform="translate(0.003059, 0.000000)">
                        <mask id="mask-44" fill="white">
                            <use xlink:href="#path-43"></use>
                        </mask>
                        <g id="Clip-92"></g>
                        <path d="M26.5113472,1.55366699 C43.7660135,1.75592056 52.1537482,13.0200961 52.9574759,18.5780243 C53.8327255,13.9765308 45.5933989,0.224186847 26.5095592,-0.000539342857 C7.41677925,0.224186847 -0.821653381,13.9909133 0.0643245608,18.5852155 C0.860900087,13.0299841 9.24952877,1.75592056 26.5113472,1.55366699" id="Fill-91" fill="#87552E" mask="url(#mask-44)"></path>
                    </g>
                    <path d="M52.9221815,17.2968153 C50.941024,24.7667139 33.4118923,25.3519009 26.5127078,25.3519009 C19.6135234,25.3519009 2.08528574,24.7667139 0.104128203,17.2968153 C0.0844596711,17.2249029 0.0746254053,17.1440015 0.0612150429,17.0666957 C-0.0308694454,17.7282896 -0.0210351797,18.3152744 0.104128203,18.7845027 C2.08528574,26.2526034 19.6135234,26.8368915 26.5127078,26.8368915 C33.4118923,26.8368915 50.941024,26.2526034 52.9221815,18.7845027 C53.0464509,18.3152744 53.0571791,17.7282896 52.9659887,17.0666957 C52.9507903,17.1440015 52.940956,17.2249029 52.9221815,17.2968153" id="Fill-94" fill="#FADAB2"></path>
                    <path d="M44.8523618,17.8428101 C45.0222264,18.3021504 44.7772638,18.6194638 44.3847872,18.7677831 C43.9896285,18.9152034 43.5953639,18.8387965 43.4237112,18.3821529 C43.2538466,17.9246104 43.2529526,16.6472667 43.5515567,16.5349036 C43.8206579,16.4333274 44.6824972,17.3861664 44.8523618,17.8428101" id="Fill-96" fill="#87552E"></path>
                    <path d="M44.27965,18.4889428 C43.9157821,18.6255763 43.5581725,18.5572596 43.3713214,18.1878097 C43.3874138,18.260621 43.4044003,18.3280388 43.4240688,18.3819731 C43.5948274,18.8395157 43.9899861,18.9159226 44.3842508,18.7685022 C44.7776214,18.6201829 45.022584,18.3019706 44.8527194,17.8426303 C44.8330509,17.7904938 44.8035481,17.7302672 44.7659991,17.665546 C44.8634477,18.0655587 44.6426238,18.3514104 44.27965,18.4889428" id="Fill-98" fill="#87552E"></path>
                    <path d="M42.6330363,11.8234741 C42.1484752,11.7947092 41.9598361,11.4387429 41.9839747,11.0180554 C42.0099014,10.5955702 42.2387716,10.2638743 42.7260148,10.2926393 C43.2096818,10.3214043 44.3701252,10.8373756 44.3522447,11.1591835 C44.3334702,11.446833 43.1184914,11.8522391 42.6330363,11.8234741" id="Fill-100" fill="#87552E"></path>
                    <path d="M42.2794497,11.0343256 C42.3018003,10.6442009 42.511896,10.3457646 42.9222531,10.323292 C42.8480491,10.3071117 42.7809973,10.2963248 42.7255678,10.2927292 C42.2383246,10.2639642 42.0094544,10.5956601 41.9844217,11.0181453 C41.9602831,11.4388328 42.1489222,11.794799 42.6334833,11.823564 C42.6898068,11.8280585 42.7559646,11.823564 42.8301686,11.8154739 C42.4269637,11.7435615 42.2570991,11.4244503 42.2794497,11.0343256" id="Fill-102" fill="#87552E"></path>
                    <path d="M4.8221619,15.6025596 C4.48064467,15.2546835 4.57719928,14.8636599 4.8740153,14.5670213 C5.17440742,14.2685849 5.56420195,14.1759978 5.90750723,14.522975 C6.24902446,14.8708511 6.76934652,16.0340339 6.5431584,16.2605579 C6.33753285,16.4646093 5.16457315,15.9504358 4.8221619,15.6025596" id="Fill-104" fill="#87552E"></path>
                    <path d="M5.08312755,14.7774549 C5.35938101,14.5014912 5.71252056,14.4205897 6.03258121,14.6785754 C5.98966805,14.6174499 5.94675489,14.5653134 5.90741782,14.5230649 C5.56411255,14.1760876 5.17431801,14.2686748 4.8739259,14.5671112 C4.57710988,14.8637498 4.48055527,15.2547734 4.8220725,15.6026495 C4.86140956,15.6431002 4.91415698,15.6853487 4.9740566,15.7284962 C4.72283581,15.4039916 4.80687408,15.0525198 5.08312755,14.7774549" id="Fill-106" fill="#87552E"></path>
                    <path d="M12.43442,14.1980209 C11.9489649,14.1683571 11.7612198,13.8141886 11.7844644,13.3935012 C11.8103911,12.970117 12.0401553,12.6384212 12.5265045,12.6671861 C13.0101716,12.6950522 14.1706149,13.2119224 14.1527344,13.5346292 C14.134854,13.8213798 12.9189811,14.2267859 12.43442,14.1980209" id="Fill-108" fill="#87552E"></path>
                    <path d="M12.0808334,13.4088724 C12.1031841,13.0178489 12.3123857,12.7194125 12.7236368,12.6987377 C12.6494328,12.6816585 12.582381,12.6708716 12.5260575,12.667276 C12.0397083,12.6385111 11.8099441,12.9702069 11.7849115,13.3935911 C11.7616668,13.8142785 11.9494119,14.168447 12.434867,14.1981108 C12.4911905,14.2035042 12.5573483,14.1981108 12.6315523,14.1909196 C12.2274534,14.1172094 12.0575888,13.799896 12.0808334,13.4088724" id="Fill-110" fill="#87552E"></path>
                    <path d="M38.1061449,15.4454311 C37.664497,15.6503813 37.33192,15.4265541 37.1557972,15.0445195 C36.9787805,14.6588894 37.0261637,14.2588768 37.4678117,14.0521287 C37.9076716,13.8489762 39.1745038,13.7536923 39.3086074,14.0449374 C39.4293007,14.3065187 38.5468988,15.2404808 38.1061449,15.4454311" id="Fill-112" fill="#87552E"></path>
                    <path d="M37.4243621,14.9178639 C37.2616497,14.5627965 37.3036688,14.199639 37.6568084,13.9865985 C37.5843924,14.0072733 37.5182346,14.0306449 37.4681693,14.0522186 C37.0265214,14.2589667 36.9791381,14.6589793 37.1552608,15.0446094 C37.3313836,15.426644 37.6648546,15.6495723 38.1065025,15.445521 C38.1565679,15.4230483 38.2155735,15.387991 38.2754731,15.3466414 C37.8856786,15.4724881 37.5861805,15.2729312 37.4243621,14.9178639" id="Fill-114" fill="#87552E"></path>
                    <path d="M38.7059457,18.4379749 C38.234795,18.323814 38.1096316,17.9390828 38.2070803,17.5300811 C38.307211,17.1183827 38.5906166,16.8334299 39.0644494,16.9475908 C39.5364942,17.0617517 40.5869726,17.7745832 40.5127686,18.0883009 C40.4457167,18.3696581 39.1779905,18.5530347 38.7059457,18.4379749" id="Fill-116" fill="#87552E"></path>
                    <path d="M38.4964759,17.5987574 C38.5885604,17.2194196 38.8442513,16.9614339 39.2537143,17.0126715 C39.1830864,16.9839066 39.1178227,16.9596361 39.0650752,16.9470515 C38.5903484,16.8328906 38.3069428,17.1187423 38.2077061,17.5304407 C38.1093634,17.9394423 38.2345268,18.3241736 38.7056775,18.4383345 C38.761107,18.451818 38.8281588,18.4608071 38.9005748,18.4644027 C38.5161444,18.3214768 38.4043914,17.9789941 38.4964759,17.5987574" id="Fill-118" fill="#87552E"></path>
                    <path d="M31.786914,15.5253437 C31.382815,15.2529756 31.3971194,14.8511651 31.6286717,14.5014912 C31.862012,14.1482216 32.2258798,13.9783286 32.6326608,14.2488989 C33.0358657,14.5185704 33.7805878,15.5532097 33.6035711,15.8219823 C33.4444348,16.0619898 32.1901189,15.795914 31.786914,15.5253437" id="Fill-120" fill="#87552E"></path>
                    <path d="M31.8768528,14.6650918 C32.0923126,14.3387894 32.4204195,14.1859756 32.7887574,14.3756445 C32.7324339,14.3244069 32.6787925,14.2803606 32.6331972,14.2488989 C32.2264162,13.9783286 31.8616544,14.1482216 31.6292081,14.5014912 C31.3976558,14.8511651 31.3824574,15.2529756 31.7865564,15.5253437 C31.8330456,15.5568054 31.8938393,15.588267 31.9608911,15.6179309 C31.6479826,15.3509562 31.661393,14.9886976 31.8768528,14.6650918" id="Fill-122" fill="#87552E"></path>
                    <path d="M31.9161005,5.3959455 C31.6809721,5.0750365 31.8016654,4.76850998 32.0770248,4.56266079 C32.3541723,4.35591269 32.6804911,4.32804664 32.9200896,4.64895564 C33.157006,4.96986464 33.4430937,5.97484017 33.232998,6.13035069 C33.0443589,6.27147874 32.1521228,5.7168545 31.9161005,5.3959455" id="Fill-124" fill="#87552E"></path>
                    <path d="M32.223466,4.75871192 C32.4800509,4.56814411 32.7741848,4.54207587 33.0048431,4.79017358 C32.9753403,4.73534039 32.9476255,4.68590063 32.9199108,4.64904553 C32.6812063,4.32813654 32.3539935,4.35600258 32.076846,4.56275068 C31.8014866,4.76859987 31.6816873,5.07512639 31.9159216,5.39603539 C31.9436364,5.43378939 31.9811854,5.47424011 32.0232045,5.51469082 C31.8587041,5.22344568 31.9686691,4.94748192 32.223466,4.75871192" id="Fill-126" fill="#87552E"></path>
                    <path d="M34.3895077,10.4137218 C34.2804367,10.0002256 34.5218233,9.74403772 34.8767509,9.64695601 C35.2343605,9.55257101 35.5714076,9.65234944 35.6831607,10.0676434 C35.7931256,10.4802407 35.6849487,11.5948826 35.4140594,11.6685928 C35.1699908,11.733314 34.4994727,10.827218 34.3895077,10.4137218" id="Fill-128" fill="#87552E"></path>
                    <path d="M34.9456801,9.90017748 C35.274681,9.81208481 35.5804373,9.90197529 35.7118588,10.2408624 C35.7047066,10.1743434 35.6957664,10.1141168 35.6832501,10.0682727 C35.571497,9.65297867 35.2344499,9.55230134 34.8768403,9.64758524 C34.5219127,9.74376805 34.2805261,9.99995591 34.3895971,10.4134521 C34.4030075,10.461993 34.424464,10.517725 34.4521788,10.5761539 C34.4003254,10.2183898 34.6175733,9.98827015 34.9456801,9.90017748" id="Fill-130" fill="#87552E"></path>
                    <path d="M22.7305386,19.1938639 C22.3765051,18.9565531 22.3881274,18.6032835 22.5910709,18.2940602 C22.7958024,17.9866348 23.115863,17.8356188 23.4716847,18.0729297 C23.8266123,18.3093416 24.4801439,19.2136398 24.3245837,19.4491529 C24.1851159,19.6621933 23.0854662,19.4302759 22.7305386,19.1938639" id="Fill-132" fill="#87552E"></path>
                    <path d="M22.8082293,18.4379749 C22.9977625,18.1521232 23.2856382,18.0181864 23.608381,18.1835849 C23.5592096,18.1395385 23.5118263,18.1008856 23.4715953,18.0730196 C23.1157736,17.8357087 22.795713,17.9867247 22.5909815,18.2941501 C22.388038,18.6033734 22.3764157,18.9566429 22.7304492,19.1939538 C22.7724684,19.2209209 22.8261098,19.2478881 22.8851154,19.2739563 C22.609756,19.0402411 22.6213783,18.7220288 22.8082293,18.4379749" id="Fill-134" fill="#87552E"></path>
                    <path d="M16.4357145,15.3146404 C16.081681,15.0791274 16.0933033,14.7249589 16.2962468,14.4157357 C16.5009783,14.1083102 16.8210389,13.9572942 17.1768606,14.195504 C17.5317881,14.4319159 18.1853198,15.3353152 18.0288656,15.5708283 C17.8902918,15.7829698 16.7897481,15.5519513 16.4357145,15.3146404" id="Fill-136" fill="#87552E"></path>
                    <path d="M16.5134052,14.5597402 C16.7029384,14.2747874 16.9908141,14.1390528 17.3126628,14.3044512 C17.2634915,14.2613038 17.2170022,14.2226509 17.1767712,14.1956838 C16.8209495,13.957474 16.5008889,14.10849 16.2961574,14.4159154 C16.0932139,14.7251387 16.0815916,15.0793072 16.4356251,15.3148202 C16.4776443,15.3435852 16.5303917,15.3705523 16.5902913,15.3957216 C16.3149319,15.1620064 16.3256602,14.8437941 16.5134052,14.5597402" id="Fill-138" fill="#87552E"></path>
                    <path d="M12.9984598,8.32880207 C12.8715084,7.84788802 13.153126,7.54945164 13.5643771,7.43888635 C13.9800984,7.32832107 14.371681,7.44517869 14.5013145,7.92699164 C14.6291599,8.40610788 14.5039965,9.69963183 14.188406,9.78592668 C13.9058944,9.86053578 13.1263053,8.8079183 12.9984598,8.32880207" id="Fill-140" fill="#87552E"></path>
                    <path d="M13.6453757,7.7319293 C14.0280181,7.62945416 14.3820516,7.73462602 14.5349298,8.12654849 C14.5259895,8.05104049 14.5161553,7.98092592 14.5009568,7.92699164 C14.3713233,7.44517869 13.9797408,7.32832107 13.5640195,7.43888635 C13.1527684,7.54945164 12.8720448,7.84788802 12.9981022,8.32880207 C13.0141947,8.38453416 13.0392273,8.4492553 13.0705182,8.51757207 C13.0106186,8.10137916 13.2636274,7.83350554 13.6453757,7.7319293" id="Fill-142" fill="#87552E"></path>
                    <path d="M29.9517506,9.27337119 C30.1001586,8.80773852 30.4890591,8.71155571 30.8886879,8.84009909 C31.2901047,8.96954138 31.5520538,9.275169 31.4045398,9.74170057 C31.2561318,10.2064343 30.4702846,11.2078142 30.1663164,11.1107325 C29.892745,11.0226399 29.8033426,9.73810495 29.9517506,9.27337119" id="Fill-144" fill="#87552E"></path>
                    <path d="M30.7985703,9.124153 C31.1686963,9.24370733 31.4074007,9.51877219 31.3260445,9.92507714 C31.3600174,9.85765928 31.3868382,9.79383705 31.4047186,9.74170057 C31.5522326,9.275169 31.2902835,8.96954138 30.8888667,8.84009909 C30.4883439,8.71155571 30.1003374,8.80773852 29.9519294,9.27337119 C29.9349429,9.32640657 29.9206385,9.39292552 29.9108043,9.46663571 C30.0806689,9.09179243 30.4293383,9.00459867 30.7985703,9.124153" id="Fill-146" fill="#87552E"></path>
                    <path d="M9.5812313,11.1466887 C9.72874529,10.6801571 10.1176458,10.5848732 10.5172746,10.7125177 C10.9186914,10.8410611 11.1806405,11.1466887 11.0340206,11.6141192 C10.8856125,12.0788529 10.0997653,13.0811318 9.79490308,12.9831511 C9.52222571,12.8941596 9.43192927,11.6105236 9.5812313,11.1466887" id="Fill-148" fill="#87552E"></path>
                    <path d="M10.4281404,10.9965716 C10.7982664,11.115227 11.0369708,11.3911908 10.9556146,11.7983947 C10.9895876,11.729179 11.0155143,11.6662557 11.0342888,11.6141192 C11.1809087,11.1466887 10.9189597,10.8410611 10.5175428,10.7125177 C10.11702,10.5848732 9.72901349,10.6801571 9.58149951,11.1466887 C9.56361903,11.1997241 9.55020866,11.266243 9.53948037,11.3390543 C9.70934496,10.964211 10.0589084,10.8770173 10.4281404,10.9965716" id="Fill-150" fill="#87552E"></path>
                    <path d="M16.8652931,17.2072844 C17.3158813,17.0230089 17.638624,17.2612187 17.7968663,17.6513433 C17.9560026,18.0450636 17.8898448,18.4423795 17.4401507,18.626655 C16.9895625,18.8118294 15.7209422,18.8477856 15.600249,18.5484503 C15.492072,18.2814756 16.415599,17.3897621 16.8652931,17.2072844" id="Fill-152" fill="#87552E"></path>
                    <path d="M17.5226691,17.7655941 C17.6692891,18.1269539 17.6111775,18.4874147 17.2482037,18.6851737 C17.3215137,18.6680945 17.3876715,18.6465208 17.4395249,18.6267449 C17.890113,18.4424694 17.9553768,18.0451535 17.7971345,17.6514332 C17.6388922,17.2604097 17.3161495,17.0230988 16.8655613,17.2073743 C16.814602,17.2262513 16.7538083,17.2586119 16.6912266,17.2981637 C17.0872793,17.1893962 17.3769432,17.4042344 17.5226691,17.7655941" id="Fill-154" fill="#87552E"></path>
                    <path d="M22.116791,14.1559522 C22.4538382,14.5074239 22.3554955,14.8966497 22.0533153,15.1905916 C21.7502411,15.4854323 21.3577645,15.5726261 21.0189294,15.2211543 C20.6827763,14.8705815 20.1758646,13.7002075 20.4056288,13.4763802 C20.6121484,13.2759244 21.780638,13.8044804 22.116791,14.1559522" id="Fill-156" fill="#87552E"></path>
                    <path d="M21.8460805,14.9767421 C21.567145,15.2491103 21.2113234,15.3291128 20.8948388,15.0639359 C20.938646,15.1268592 20.9806651,15.1816924 21.0191082,15.2203453 C21.3579433,15.572716 21.7504199,15.4846233 22.0526001,15.1906815 C22.3547803,14.8967396 22.454017,14.5075138 22.1169699,14.1560421 C22.0785268,14.1155914 22.0266734,14.071545 21.9667738,14.0274987 C22.2144185,14.3564978 22.1250161,14.7070707 21.8460805,14.9767421" id="Fill-158" fill="#87552E"></path>
                    <path d="M28.9546454,20.3376303 C28.531772,20.5794357 28.1813145,20.3870701 27.9730069,20.019418 C27.7655933,19.6490693 27.7798977,19.2472589 28.2027711,19.0036557 C28.6238565,18.7627492 29.8763843,18.5604956 30.0346266,18.8409539 C30.1767765,19.0926472 29.3775189,20.0976228 28.9546454,20.3376303" id="Fill-160" fill="#87552E"></path>
                    <path d="M28.2308435,19.8688515 C28.0386283,19.5299644 28.0511446,19.1650091 28.3828276,18.9223048 C28.3130937,18.9501708 28.250512,18.977138 28.2031287,19.0032062 C27.7793613,19.2477083 27.7650569,19.6495187 27.9733645,20.0189686 C28.1807781,20.3866206 28.5321296,20.5789863 28.955003,20.3371809 C29.0023863,20.3093148 29.0587098,20.2724597 29.1150334,20.2239189 C28.7368611,20.3839239 28.4212706,20.2095364 28.2308435,19.8688515" id="Fill-162" fill="#87552E"></path>
                    <path d="M32.3631125,20.0585204 C32.2522535,20.430667 31.9429212,20.5124673 31.6219665,20.4153856 C31.3019059,20.317405 31.0873401,20.0773974 31.1990931,19.703453 C31.3099521,19.3331043 31.9223586,18.5222922 32.1655332,18.5951035 C32.3881452,18.6634202 32.4766536,19.6863738 32.3631125,20.0585204" id="Fill-164" fill="#87552E"></path>
                    <path d="M31.6882137,20.1884121 C31.3922917,20.0976228 31.1991825,19.8809867 31.2590821,19.5564821 C31.2331554,19.6104164 31.2125928,19.661654 31.1991825,19.7039025 C31.0874295,20.0778469 31.3011012,20.3178544 31.6220559,20.415835 C31.9430106,20.5120179 32.2523429,20.4311164 32.3632019,20.058071 C32.3766123,20.0149235 32.3873406,19.962787 32.3927047,19.9043582 C32.2630712,20.2045924 31.9850297,20.2801004 31.6882137,20.1884121" id="Fill-166" fill="#87552E"></path>
                    <path d="M27.3918912,4.59448202 C27.7280443,4.94505487 27.6091391,5.35495544 27.2819262,5.67226882 C26.9538194,5.99138001 26.5416742,6.09924859 26.2028391,5.74777682 C25.866686,5.39810287 25.3892771,4.20255954 25.6378158,3.96165306 C25.8613218,3.74411811 27.0566321,4.24301025 27.3918912,4.59448202" id="Fill-168" fill="#87552E"></path>
                    <path d="M27.0758537,5.46003741 C26.7727795,5.75308036 26.3999714,5.85195989 26.0808048,5.59127751 C26.1237179,5.65330193 26.164843,5.70723622 26.2023921,5.74768693 C26.5412272,6.0991587 26.9533723,5.99129012 27.2814792,5.67217893 C27.6095861,5.35486555 27.7275973,4.94496498 27.3923382,4.59439213 C27.3538952,4.55394141 27.3020418,4.50899617 27.2421422,4.46764655 C27.4862107,4.79844351 27.3780338,5.16609555 27.0758537,5.46003741" id="Fill-170" fill="#87552E"></path>
                    <path d="M18.4411895,5.56188332 C18.6986685,5.82885803 18.607478,6.1425758 18.3571513,6.38528008 C18.1059305,6.62978218 17.7903399,6.71158251 17.5310729,6.44370889 C17.274488,6.17673418 16.9088321,5.26254803 17.0992593,5.07737365 C17.2700179,4.91107627 18.1846046,5.2931108 18.4411895,5.56188332" id="Fill-172" fill="#87552E"></path>
                    <path d="M18.1992666,6.2237469 C17.9668203,6.44847309 17.6825206,6.52398109 17.436664,6.32352532 C17.4706369,6.37116728 17.5028218,6.4134158 17.5314305,6.44397856 C17.7906975,6.71185218 18.1062881,6.63005185 18.3575089,6.38554975 C18.6069416,6.14194656 18.6990261,5.82912771 18.4415471,5.56215299 C18.4120443,5.53069132 18.3718132,5.49653294 18.326218,5.46507128 C18.5130691,5.71856242 18.4299248,5.9981218 18.1992666,6.2237469" id="Fill-174" fill="#87552E"></path>
                    <path d="M21.1284473,9.40685855 C20.6483564,9.47877093 20.3899834,9.16954769 20.3282957,8.75155697 C20.2666081,8.33356626 20.4248503,7.96231859 20.9067293,7.89040621 C21.3859263,7.81849383 22.6277259,8.08636745 22.6742151,8.40457974 C22.7162342,8.68953255 21.6076443,9.33674397 21.1284473,9.40685855" id="Fill-176" fill="#87552E"></path>
                    <path d="M20.6220721,8.70804998 C20.5648545,8.31972313 20.7070044,7.98443165 21.1048451,7.87925979 C21.028853,7.87925979 20.9618012,7.8810576 20.9063717,7.89004665 C20.4244927,7.96195903 20.2671445,8.3332067 20.3288321,8.75209632 C20.3896258,9.17008703 20.6479988,9.47841136 21.1280897,9.40649898 C21.1835192,9.40020665 21.248783,9.38222856 21.3185169,9.35975594 C20.9090538,9.36964389 20.6775016,9.09368013 20.6220721,8.70804998" id="Fill-178" fill="#87552E"></path>
                    <path d="M24.6382074,10.3689563 C24.5523811,10.0156867 24.7624767,9.80264631 25.066445,9.72803722 C25.3713072,9.65432703 25.6565009,9.74601531 25.7423272,10.1010827 C25.8272595,10.4534534 25.7137184,11.3991012 25.4830602,11.4557322 C25.2747526,11.5060708 24.7222457,10.7240237 24.6382074,10.3689563" id="Fill-180" fill="#87552E"></path>
                    <path d="M25.1192818,9.94404403 C25.4008994,9.87572727 25.6592724,9.95842651 25.7638732,10.2487727 C25.7594031,10.1912428 25.7513569,10.142702 25.7424166,10.1013524 C25.6565903,9.74538608 25.3713966,9.6545967 25.0656403,9.72830689 C24.7625661,9.80291598 24.5524705,10.0159564 24.6382968,10.369226 C24.6481311,10.4096767 24.6633295,10.4582176 24.6865741,10.5094551 C24.6499191,10.2038275 24.8385582,10.0123608 25.1192818,9.94404403" id="Fill-182" fill="#87552E"></path>
                    <path d="M27.0696849,15.5569851 C26.7433661,15.605526 26.5672433,15.3969801 26.5261182,15.1129262 C26.4840991,14.8270745 26.591382,14.5735833 26.9194888,14.5259414 C27.2458076,14.4774005 28.0915545,14.6589793 28.1228453,14.8747164 C28.1514541,15.0688799 27.3968977,15.5093432 27.0696849,15.5569851" id="Fill-184" fill="#87552E"></path>
                    <path d="M26.7257538,15.0811949 C26.6864167,14.8178158 26.7829713,14.5876961 27.0547547,14.5175816 C27.0029013,14.5175816 26.9573061,14.5193794 26.919757,14.5256717 C26.5916502,14.5742126 26.4834732,14.8268048 26.5254924,15.1126565 C26.5675115,15.3976093 26.7436343,15.6052563 27.0699531,15.5567155 C27.1075021,15.551322 27.1530973,15.5414341 27.1995866,15.5252538 C26.9215451,15.532445 26.7641968,15.343675 26.7257538,15.0811949" id="Fill-186" fill="#87552E"></path>
                    <path d="M35.4677902,21.2172086 C35.1414714,21.2648506 34.9653487,21.053608 34.9242235,20.7695541 C34.8822044,20.4855002 34.9894873,20.232009 35.3175942,20.1825693 C35.643913,20.1340284 36.4896598,20.3165061 36.5209507,20.5322432 C36.5495595,20.7291034 35.794109,21.1677689 35.4677902,21.2172086" id="Fill-188" fill="#87552E"></path>
                    <path d="M35.1228757,20.7397104 C35.0844327,20.4763313 35.1800933,20.2480095 35.4527706,20.1751982 C35.4009172,20.1751982 35.355322,20.177895 35.317773,20.1823895 C34.9896661,20.2327281 34.8814892,20.4853204 34.9235083,20.7693743 C34.9655275,21.0543271 35.1416502,21.2646708 35.467969,21.2170289 C35.5055181,21.2116354 35.5511133,21.1999497 35.5984966,21.1837694 C35.318667,21.1927584 35.1622128,21.0030895 35.1228757,20.7397104" id="Fill-190" fill="#87552E"></path>
                    <path d="M20.981738,20.6660002 C21.2812361,20.5248722 21.5083182,20.6749893 21.6307995,20.9347728 C21.7523868,21.197253 21.7202019,21.4687222 21.4198098,21.6107491 C21.1212057,21.7518772 20.2593665,21.8210929 20.168176,21.621536 C20.0850317,21.4435529 20.6831339,20.8035327 20.981738,20.6660002" id="Fill-192" fill="#87552E"></path>
                    <path d="M21.4479716,21.0223261 C21.5597246,21.2632326 21.5329039,21.5104314 21.2933054,21.6560539 C21.3433707,21.6416715 21.3862839,21.6263901 21.4202568,21.6102098 C21.7206489,21.4681829 21.7528338,21.1967136 21.6303525,20.9342334 C21.5078712,20.6744499 21.2807891,20.5243329 20.982185,20.6663598 C20.946424,20.6798434 20.907981,20.7041138 20.8668559,20.7337777 C21.131487,20.6447861 21.3362186,20.7805207 21.4479716,21.0223261" id="Fill-194" fill="#87552E"></path>
                    <path d="M39.6140061,8.34021816 C39.7981751,8.61618192 39.686422,8.86517854 39.4495056,9.02698139 C39.2116952,9.18788535 38.9390178,9.20047001 38.7530608,8.92360735 C38.5671038,8.64854249 38.3659483,7.80357201 38.5474353,7.68221987 C38.7083596,7.57165459 39.4307311,8.0651533 39.6140061,8.34021816" id="Fill-196" fill="#87552E"></path>
                    <path d="M39.3363222,8.85906598 C39.1163922,9.00828417 38.8696416,9.01907103 38.6863666,8.80423279 C38.7096112,8.85187475 38.7310678,8.89232546 38.7534184,8.92378713 C38.9393754,9.20064979 39.2111588,9.18806513 39.4498632,9.02716117 C39.6867796,8.86535832 39.7985327,8.61546279 39.6143637,8.34039794 C39.5929071,8.30983518 39.5634043,8.27298008 39.5285374,8.23612498 C39.6563828,8.48691941 39.5544641,8.70984779 39.3363222,8.85906598" id="Fill-198" fill="#87552E"></path>
                    <path d="M46.4701879,14.8441537 C46.2341656,14.6122362 46.2958532,14.3452615 46.4943266,14.1394123 C46.694588,13.9326642 46.9601132,13.8661453 47.1961356,14.0998605 C47.433052,14.331778 47.7996019,15.1183196 47.6476178,15.274729 C47.509938,15.416756 46.7053163,15.0760711 46.4701879,14.8441537" id="Fill-200" fill="#87552E"></path>
                    <path d="M46.6387115,14.2805404 C46.8237745,14.0908715 47.064267,14.029746 47.285091,14.2032346 C47.2529061,14.160986 47.2242973,14.1259288 47.1965826,14.0998605 C46.9596662,13.8661453 46.694141,13.9326642 46.4947736,14.1394123 C46.2954062,14.3452615 46.2346126,14.6122362 46.470635,14.8441537 C46.4965617,14.8720197 46.5332167,14.8998858 46.5752358,14.9304485 C46.398219,14.7102169 46.4545425,14.4693104 46.6387115,14.2805404" id="Fill-202" fill="#87552E"></path>
                    <path d="M11.7219722,19.3509925 C11.4868438,19.1172772 11.5476374,18.8503025 11.7461108,18.6444533 C11.9463722,18.4377052 12.2127914,18.3720852 12.4488138,18.6049015 C12.6857302,18.8368189 13.0522801,19.6233606 12.899402,19.77977 C12.7626163,19.9208981 11.9579945,19.5829099 11.7219722,19.3509925" id="Fill-204" fill="#87552E"></path>
                    <path d="M11.8913897,18.7847724 C12.0755587,18.5951035 12.3169452,18.5348768 12.5368752,18.7065676 C12.5055843,18.6661169 12.4760815,18.6319585 12.4492608,18.6049914 C12.2123444,18.3721751 11.9468192,18.4377951 11.7465578,18.6445432 C11.5471904,18.8503924 11.4872908,19.1173671 11.7224192,19.3510824 C11.7492399,19.3771506 11.7850009,19.4050166 11.827914,19.4355794 C11.6508972,19.2153477 11.7063267,18.9753402 11.8913897,18.7847724" id="Fill-206" fill="#87552E"></path>
                    <path d="M16.9325238,10.5216802 C17.1756983,10.2996508 17.4376474,10.3742598 17.6307566,10.5864014 C17.8247599,10.7994418 17.8757192,11.0691132 17.6307566,11.2938394 C17.3875821,11.5185656 16.5856424,11.8421713 16.4381284,11.6803685 C16.3067068,11.5347459 16.6884552,10.7455075 16.9325238,10.5216802" id="Fill-208" fill="#87552E"></path>
                    <path d="M17.4825274,10.7244731 C17.6604382,10.9204344 17.7087155,11.1649365 17.5236525,11.377078 C17.5665657,11.3465152 17.6032207,11.320447 17.6309354,11.2943788 C17.875004,11.0696526 17.8249387,10.7990822 17.6309354,10.5869407 C17.4378262,10.3739003 17.1758771,10.2992912 16.9327026,10.5213207 C16.9040938,10.5482878 16.8728029,10.5833451 16.8415121,10.6237958 C17.0694883,10.4583973 17.3046166,10.527613 17.4825274,10.7244731" id="Fill-210" fill="#87552E"></path>
                    <path d="M10.5582209,15.4621507 C10.8872218,15.4549595 11.0365238,15.6832813 11.0454641,15.9700319 C11.0544043,16.2585803 10.9167246,16.4958912 10.5859357,16.5057791 C10.2551467,16.5156671 9.43800863,16.233411 9.43175046,16.0149771 C9.42638632,15.8190159 10.228326,15.4720386 10.5582209,15.4621507" id="Fill-212" fill="#87552E"></path>
                    <path d="M10.8436828,15.9765939 C10.851729,16.2426697 10.7283537,16.4593057 10.4512062,16.4979586 C10.5021656,16.5033521 10.5477608,16.5087455 10.5862039,16.5060488 C10.9169928,16.4961608 11.0537785,16.2579511 11.0457323,15.9703016 C11.036792,15.6835509 10.88749,15.4552291 10.5584891,15.4624204 C10.5200461,15.4642182 10.4744508,15.4696116 10.4243855,15.4794996 C10.703321,15.5046689 10.8374246,15.7123159 10.8436828,15.9765939" id="Fill-214" fill="#87552E"></path>
                    <g id="Group-276" transform="translate(4.542289, 4.294517)" fill="#FADAB2">
                        <path d="M39.8421404,14.4735352 C39.4478758,14.6209556 39.0527171,14.5445487 38.8819585,14.0870062 C38.7800397,13.8137391 38.7407027,13.2501259 38.7871919,12.814157 C38.6557704,13.2303499 38.6843791,14.0708259 38.8166947,14.4222977 C38.9874533,14.8807391 39.381718,14.9580449 39.7768767,14.8079278 C40.0942552,14.6892724 40.3034569,14.4546582 40.2864704,14.1274569 C40.197068,14.2811696 40.0379317,14.3980272 39.8421404,14.4735352" id="Fill-216"></path>
                        <path d="M38.0907471,7.52895661 C37.6160203,7.50019166 37.4282752,7.15770894 37.4434736,6.74870728 C37.4068186,6.84309228 37.383574,6.94736523 37.3764218,7.06062723 C37.3522831,7.48041575 37.5409222,7.83548313 38.0263774,7.86514699 C38.5118325,7.89391194 39.7259173,7.4894048 39.7446918,7.20175528 C39.7473739,7.15141661 39.715189,7.09748232 39.6704878,7.04175023 C39.3388048,7.29344356 38.4814357,7.55232813 38.0907471,7.52895661" id="Fill-218"></path>
                        <path d="M0.279872739,11.3080421 C0.139510946,11.1660152 0.0876575447,11.0149992 0.0787173031,10.865781 C-0.0473401033,11.111182 -0.0357177893,11.3889435 0.214608975,11.6433336 C0.557020228,11.9912097 1.73087395,12.5053833 1.93649951,12.3031297 C1.99371705,12.2455998 2.00176327,12.1260454 1.97762462,11.9759284 C1.732662,12.1404279 0.61334375,11.6460303 0.279872739,11.3080421" id="Fill-220"></path>
                        <path d="M7.89213084,9.90350343 C7.41740402,9.87383957 7.22965894,9.53135686 7.24396333,9.124153 C7.20730834,9.218538 7.18406371,9.32281095 7.17780554,9.43517405 C7.15366689,9.85406366 7.34230599,10.2109289 7.82686708,10.2405927 C8.3123222,10.2702566 9.52730103,9.86485052 9.54607554,9.57540319 C9.54875761,9.52686233 9.51567872,9.47202914 9.47097751,9.41539814 C9.14018857,9.66799038 8.2828194,9.92777386 7.89213084,9.90350343" id="Fill-222"></path>
                        <path d="M34.6805813,10.0685423 C34.4561813,10.4505769 33.890264,11.0007066 33.5639452,11.1508237 C33.1222972,11.355774 32.7897202,11.1328456 32.6127035,10.7499121 C32.5626381,10.6393469 32.5376054,10.5287816 32.5277712,10.420913 C32.4303225,10.6177731 32.4410508,10.8523873 32.5474397,11.0852036 C32.7244565,11.469036 33.0579275,11.6928632 33.4986814,11.487913 C33.9394353,11.2847605 34.8218372,10.3490006 34.7002499,10.0874193 C34.6975678,10.081127 34.6850515,10.0757336 34.6805813,10.0685423" id="Fill-224"></path>
                        <path d="M34.1636566,14.1434574 C33.7810142,14.0508702 33.6352883,13.7785021 33.6424405,13.4602898 C33.6290301,13.4998416 33.6102556,13.5313033 33.6004214,13.5726529 C33.5029727,13.9825535 33.6263481,14.364588 34.0992868,14.4805467 C34.5704376,14.5947076 35.8390579,14.4104321 35.9052156,14.1290749 C35.918626,14.0733428 35.8864411,14.0014305 35.8363758,13.9250235 C35.4921765,14.1254793 34.5552392,14.2387413 34.1636566,14.1434574" id="Fill-226"></path>
                        <path d="M27.2446248,11.2308262 C27.0381052,11.0923949 26.9433387,10.9180073 26.9281403,10.7355297 C26.808341,11.0339661 26.8485721,11.3449871 27.1802551,11.5670166 C27.5825659,11.8384858 28.8359878,12.1036627 28.9960181,11.8618573 C29.0362492,11.8016307 29.0246269,11.6973578 28.9835018,11.5751067 C28.6741694,11.7153359 27.6111747,11.4762272 27.2446248,11.2308262" id="Fill-228"></path>
                        <path d="M28.6904407,1.83619276 C28.518788,1.96473614 27.7856882,1.52157609 27.4745678,1.19797038 C27.4781439,1.20606052 27.4772499,1.21325176 27.480826,1.21954409 C27.4397009,1.17999228 27.4012578,1.13954157 27.3735431,1.10178757 C27.3100674,1.0145938 27.2760945,0.928298947 27.2617901,0.845599709 C27.1625534,1.02088614 27.1536131,1.22403861 27.3091733,1.43797795 C27.3351,1.47483304 27.3735431,1.51618266 27.4155622,1.55663338 C27.4110921,1.54944214 27.4128802,1.5422509 27.40841,1.53416076 C27.7204245,1.85776647 28.4526302,2.30092652 28.6260709,2.17238314 C28.6895467,2.12474118 28.703851,1.9961978 28.6904407,1.83619276" id="Fill-230"></path>
                        <path d="M30.8713232,7.37362587 C30.6281486,7.43834701 29.9576305,6.53225101 29.8467715,6.11875482 C29.8333612,6.07111287 29.8414074,6.03245996 29.8378313,5.98751472 C29.7627333,6.11156358 29.7314424,6.2652763 29.7815078,6.45584411 C29.8914727,6.86844139 30.5619908,7.77363849 30.8069535,7.70981625 C30.9464212,7.67206225 31.0411878,7.35564777 31.0876771,7.0032771 C31.0349296,7.20013725 30.9634077,7.34935544 30.8713232,7.37362587" id="Fill-232"></path>
                        <path d="M18.1882495,14.8993464 C18.0148088,14.7824888 17.9307705,14.638664 17.911996,14.4858502 C17.7966669,14.7528249 17.8243816,15.035081 18.1229857,15.2355368 C18.4779133,15.4719488 19.578457,15.7047651 19.7170308,15.4926236 C19.7554738,15.4341948 19.7375933,15.3308207 19.6946802,15.2112664 C19.3925,15.3110448 18.502052,15.1069934 18.1882495,14.8993464" id="Fill-234"></path>
                        <path d="M11.8934254,11.0201229 C11.7199847,10.9041642 11.6359464,10.7603394 11.6171719,10.6075256 C11.5009488,10.8745003 11.5295575,11.1567564 11.8281616,11.3572122 C12.1830892,11.5945231 13.2827389,11.8255416 13.4222067,11.614299 C13.4606497,11.5558702 13.4418752,11.4524961 13.3998561,11.3329418 C13.0976759,11.4336191 12.2072279,11.2286688 11.8934254,11.0201229" id="Fill-236"></path>
                        <path d="M9.64611684,5.49149908 C9.36360521,5.56610817 8.58401614,4.5134907 8.45617069,4.03437446 C8.4382902,3.96965332 8.44633642,3.91571903 8.44276032,3.85729022 C8.36855632,3.99572155 8.33637145,4.16201894 8.39090692,4.37146374 C8.51785835,4.85057998 9.29744742,5.90229855 9.58085308,5.82679055 C9.73998938,5.78454203 9.85084837,5.43396917 9.90448982,5.03485546 C9.84369618,5.27755974 9.75697584,5.46183522 9.64611684,5.49149908" id="Fill-238"></path>
                        <path d="M25.624206,6.81621502 C25.3989119,6.74430264 25.3014633,5.86337598 25.3551047,5.29526817 C25.3524227,5.30335831 25.3461645,5.30695393 25.3443765,5.31504407 C25.1959684,5.77977783 25.2844768,7.06431274 25.5589423,7.1524054 C25.8629105,7.25038602 26.6487577,6.24810721 26.7971657,5.78337345 C26.8266685,5.68988736 26.8284566,5.60898593 26.8275625,5.52898341 C26.6255131,6.0188865 25.9120818,6.90970112 25.624206,6.81621502" id="Fill-240"></path>
                        <path d="M5.25288212,8.68863364 C5.02758804,8.61672126 4.9301394,7.73579459 4.98378085,7.16768679 C4.98109878,7.17487802 4.97484061,7.17847364 4.97394659,7.18746269 C4.82464455,7.65219645 4.91404697,8.93763026 5.18851238,9.02392512 C5.4924806,9.12190574 6.27743381,8.11962693 6.42584182,7.65579207 C6.45534462,7.56230598 6.45713267,7.48230345 6.45713267,7.40140202 C6.25508321,7.89130512 5.54165193,8.78211974 5.25288212,8.68863364" id="Fill-242"></path>
                        <path d="M12.8974145,14.3322274 C12.4664949,14.5093116 11.2935352,14.5461667 11.0905917,14.2854844 C11.0101295,14.4122299 10.9654283,14.5227952 10.993143,14.591112 C11.1129423,14.8877505 12.3824566,14.8517944 12.8321507,14.6702156 C13.1674098,14.5317843 13.2881031,14.2764953 13.2630704,13.9924414 C13.1978066,14.1308727 13.0887357,14.2540227 12.8974145,14.3322274" id="Fill-244"></path>
                        <path d="M17.510758,10.8963437 C17.2076838,11.1902856 16.8161012,11.2783783 16.477266,10.9260076 C16.438823,10.8864558 16.3968039,10.8325215 16.3521027,10.7686993 L16.3529967,10.7686993 C16.1223384,10.4432957 15.8755878,9.87878355 15.8228404,9.50843478 C15.8165822,9.5120304 15.8040658,9.5120304 15.7987017,9.51742383 C15.5948642,9.71608178 15.9658842,10.648246 16.2877329,11.1066874 L16.2868389,11.1066874 C16.3315401,11.167813 16.3735592,11.2208484 16.4120023,11.262198 C16.7499434,11.6145686 17.14242,11.5273749 17.4454942,11.2325341 C17.6260871,11.0590455 17.7172775,10.846904 17.7047612,10.6338635 C17.6564839,10.7264507 17.5947962,10.8154423 17.510758,10.8963437" id="Fill-246"></path>
                        <path d="M25.4277889,14.880829 C25.2311036,15.2808416 24.7224038,15.8678264 24.4121775,16.0431128 C23.9901981,16.2849182 23.6388466,16.0925526 23.431433,15.7240016 C23.359911,15.5972561 23.3268321,15.4651171 23.3161038,15.3374726 C23.2025628,15.5568054 23.2275955,15.8138921 23.3661692,16.060192 C23.5735828,16.4269452 23.9249343,16.6211086 24.3469137,16.3784043 C24.7697871,16.1401946 25.5699387,15.1334212 25.4277889,14.880829" id="Fill-248"></path>
                        <path d="M27.0795879,16.1212277 C26.8328373,16.0457197 26.6513504,15.8848157 26.6325759,15.6430103 C26.6173775,15.6798654 26.600391,15.7158216 26.5914508,15.7445866 C26.4796977,16.1194299 26.6933695,16.3594374 27.0143242,16.4592159 C27.3352789,16.5553987 27.6446112,16.4735983 27.7554702,16.0996539 C27.7787148,16.0259438 27.7903372,15.919873 27.7974893,15.8075099 C27.675008,16.136509 27.3853442,16.2138149 27.0795879,16.1212277" id="Fill-250"></path>
                        <path d="M22.7395477,1.378021 C22.4114408,1.69623328 21.9992957,1.80500076 21.6604605,1.453529 C21.6229115,1.41307828 21.5808924,1.359144 21.5379792,1.29711957 L21.5388732,1.29711957 C21.3108971,0.965423714 21.0748747,0.383832333 21.0382197,0 C21.0364316,0.00179780952 21.0328555,0.00179780952 21.0301735,0.00359561905 C20.8102435,0.216636047 21.1571249,1.17217181 21.4736095,1.63420886 L21.4727154,1.63241105 C21.5156286,1.69533438 21.5576477,1.74836976 21.5951967,1.78882047 C21.9340319,2.14119114 22.3470711,2.03332257 22.6742839,1.71331248 C22.8754393,1.51735124 22.9818282,1.28633271 22.9675238,1.05621309 C22.9129884,1.16947509 22.8414664,1.27824257 22.7395477,1.378021" id="Fill-252"></path>
                        <path d="M13.8150409,2.09076258 C13.5638201,2.33526468 13.2482296,2.41706501 12.9889626,2.14919139 C12.9603538,2.11862863 12.9281689,2.07638011 12.89509,2.02963706 C12.9022422,2.03503049 12.9093944,2.03503049 12.9156526,2.04042392 C12.7502581,1.81300101 12.5786055,1.41029168 12.5294342,1.1127542 C12.5195999,1.11814763 12.4981433,1.1127542 12.4927792,1.11904654 C12.3184445,1.28624282 12.6045322,2.0377272 12.8503888,2.3766143 C12.8441307,2.37122087 12.8369785,2.37122087 12.8298263,2.36582744 C12.8637992,2.41346939 12.89509,2.45392011 12.9245928,2.48538177 C13.1829658,2.7541543 13.4985563,2.67145506 13.7497771,2.42785187 C13.9124895,2.26784682 13.9956338,2.07907682 13.9714951,1.89300354 C13.931264,1.9622192 13.8785166,2.02963706 13.8150409,2.09076258" id="Fill-254"></path>
                        <path d="M18.0101599,4.34242912 C17.7589391,4.60670712 17.1733532,4.93840298 16.7764065,5.06514855 C16.7066726,5.08762117 16.6414089,5.10559926 16.5859794,5.1118916 C16.1058884,5.18470288 15.8475154,4.87547964 15.7867218,4.45748893 C15.7777815,4.40175684 15.7849337,4.35051926 15.7849337,4.29568607 C15.7187759,4.44040974 15.6937433,4.61030274 15.720564,4.79457822 C15.7822517,5.21167002 16.0406246,5.51999436 16.5207156,5.44808198 C16.5761451,5.44089074 16.6423029,5.42471045 16.7120368,5.40044002 L16.7111428,5.40044002 C17.2421931,5.23144593 18.1031384,4.69839541 18.0664834,4.44580317 C18.0620133,4.41074588 18.0414507,4.3756886 18.0101599,4.34242912" id="Fill-256"></path>
                        <path d="M20.9410393,7.16121467 C20.7568703,7.205261 20.3044941,6.5993992 20.1435697,6.21287015 L20.1435697,6.21466796 C20.1212191,6.16432929 20.1051267,6.11488953 20.0961864,6.07443881 C20.0890342,6.04837058 20.0952924,6.02589796 20.0926103,6.00072862 C20.0193004,6.10590048 19.9897976,6.2416351 20.0300286,6.4115281 C20.0398629,6.45197881 20.0559553,6.50051967 20.0783059,6.54995943 L20.0783059,6.54906053 C20.2392303,6.93469067 20.6916065,7.54145139 20.8757755,7.49650615 C21.003621,7.46504448 21.0939174,7.15941686 21.1359365,6.83401334 C21.0876592,7.00840086 21.0215014,7.14053986 20.9410393,7.16121467" id="Fill-258"></path>
                        <path d="M22.6574762,11.2308262 L22.6574762,11.2308262 C22.610093,11.2470065 22.5644977,11.2568944 22.5269487,11.2622879 C22.2006299,11.3108287 22.0254012,11.1022828 21.983382,10.8182289 C21.9807,10.7993519 21.9842761,10.7813738 21.982488,10.7651935 C21.9163302,10.8721632 21.8966617,11.0078978 21.9181183,11.1535204 C21.9601374,11.4366754 22.1353661,11.6488169 22.462579,11.5993771 C22.500128,11.5939837 22.5457232,11.5831969 22.5922125,11.5670166 C22.9533982,11.4519568 23.5398781,11.0887992 23.5157394,10.9162095 C23.5103753,10.8775566 23.462992,10.8407015 23.4138207,10.8056442 C23.2189234,10.9728405 22.8961807,11.1553182 22.6574762,11.2308262" id="Fill-260"></path>
                        <path d="M31.0546876,16.8893418 L31.0564756,16.8893418 C31.0081983,16.9055221 30.9626031,16.9172078 30.9250541,16.9226013 C30.5987352,16.9702432 30.4235065,16.7590006 30.3814874,16.4749467 C30.3788053,16.4587664 30.3832754,16.4416872 30.3805933,16.4219113 C30.3144356,16.528881 30.293873,16.6646156 30.3171176,16.812036 C30.3591368,17.0960899 30.5334715,17.3055347 30.8606843,17.2560949 C30.8982333,17.2524993 30.9429345,17.2408135 30.9912118,17.2255322 L30.9903178,17.2255322 C31.3515036,17.1104724 31.9379834,16.7473148 31.9129508,16.5747251 C31.9066926,16.5360722 31.8610974,16.4992171 31.811926,16.4641598 C31.6170288,16.6313561 31.294286,16.812036 31.0546876,16.8893418" id="Fill-262"></path>
                        <path d="M16.8777889,17.315962 C16.8438159,17.3321423 16.8009028,17.3474236 16.7508374,17.3618061 L16.7517315,17.3618061 C16.4200485,17.4597867 15.8487671,17.4867539 15.6824786,17.3618061 C15.5939702,17.4867539 15.5322825,17.6036115 15.5599973,17.6638381 C15.6413535,17.8391245 16.3225999,17.8058651 16.6864677,17.6988954 L16.6855737,17.6988954 C16.735639,17.683614 16.7794462,17.6692315 16.8125251,17.6521524 C17.0467594,17.5406882 17.1147053,17.3510193 17.0762622,17.1478668 C17.031561,17.2134868 16.9707674,17.2719156 16.8777889,17.315962" id="Fill-264"></path>
                        <path d="M34.9075741,4.73219423 C34.6688696,4.89399708 34.3970863,4.90568284 34.2111293,4.62971908 C34.1887787,4.59825742 34.1673221,4.5578067 34.1440774,4.51016475 C34.1503356,4.51735599 34.1565938,4.5191538 34.162852,4.52454723 C34.0573571,4.31690023 33.9679547,3.98250765 33.9482862,3.72362308 C33.9456041,3.72452199 33.941134,3.72182527 33.9393459,3.72362308 C33.7739514,3.83418837 33.9286176,4.52634503 34.0975882,4.86163651 C34.092224,4.85444527 34.0859659,4.85354637 34.0797077,4.84635513 C34.1029523,4.89309818 34.1235149,4.93354889 34.1458655,4.96501056 C34.3309285,5.24187322 34.6044999,5.23018746 34.8423103,5.06838461 C35.0282673,4.94163903 35.1310801,4.76095918 35.0801207,4.55600889 C35.0372076,4.62073003 34.9808841,4.68185556 34.9075741,4.73219423" id="Fill-266"></path>
                        <path d="M42.0231124,10.6163349 C42.0266885,10.6235261 42.0275825,10.6289196 42.0329466,10.6352119 C41.9909275,10.605548 41.9542725,10.577682 41.9283458,10.5498159 C41.8487777,10.4707123 41.8139107,10.388912 41.7951362,10.3053139 C41.6807011,10.4877915 41.6717609,10.6990341 41.862188,10.8869052 C41.8890087,10.9129735 41.9256637,10.9417384 41.9676829,10.9714023 C41.9632127,10.9660089 41.9614247,10.9588176 41.9578486,10.9534242 C42.2564527,11.1772515 42.9144544,11.4442262 43.0405119,11.3156828 C43.0905772,11.2644452 43.0726967,11.1359019 43.0333597,10.9920771 C42.8313102,11.039719 42.2913196,10.8185885 42.0231124,10.6163349" id="Fill-268"></path>
                        <path d="M7.27570119,15.1213759 C7.27927728,15.1285671 7.28017131,15.1339606 7.28553545,15.1402529 C7.24262229,15.110589 7.20686133,15.082723 7.1800406,15.0566548 C7.10047245,14.9775511 7.06471148,14.893953 7.046831,14.8103548 C6.93328993,14.9928325 6.92345567,15.2040751 7.11477684,15.3901484 C7.14159756,15.4180145 7.17825255,15.4458805 7.22027169,15.4764433 C7.21580157,15.4710498 7.21490754,15.4638586 7.21043742,15.4584652 C7.50814747,15.6813936 8.1679373,15.9483683 8.29310068,15.8207238 C8.34316603,15.7694862 8.32528555,15.6409428 8.28505446,15.4971181 C8.08479305,15.5429622 7.54390843,15.3236295 7.27570119,15.1213759" id="Fill-270"></path>
                        <path d="M13.0886463,6.99968149 C13.0609315,7.02574972 13.0242765,7.05271687 12.9813634,7.08238072 C12.9867275,7.07608839 12.9876215,7.06979606 12.9929857,7.06260482 C12.6881234,7.27924087 12.0292276,7.53363091 11.896018,7.38621053 C11.8817137,7.37182806 11.8915479,7.33137734 11.8879718,7.30620801 C11.8146618,7.4940791 11.7771128,7.66217429 11.8307543,7.72240091 C11.9648579,7.86892239 12.6228597,7.61543125 12.9268279,7.3996941 C12.9223578,7.40508753 12.9214638,7.41227877 12.9169936,7.4185711 C12.9581187,7.38980615 12.9956678,7.3610412 13.0242765,7.33587187 C13.1744726,7.19833944 13.2030814,7.04372782 13.1664264,6.89630744 C13.1431817,6.93046582 13.1253013,6.96642201 13.0886463,6.99968149" id="Fill-272"></path>
                        <path d="M6.0438253,12.2113515 C6.00538226,12.2140482 5.95978703,12.2086548 5.90882765,12.2032614 L5.90972167,12.2032614 C5.62095187,12.1664063 5.18645613,12.0171881 4.99155886,11.8616776 C4.89142816,11.9317921 4.82348232,12.0001089 4.82436763,12.055841 C4.83063451,12.2500044 5.46717971,12.4918098 5.84356389,12.5385528 L5.84266986,12.5385528 C5.89452326,12.5457441 5.9401185,12.5484408 5.97856153,12.5484408 C6.30935047,12.5385528 6.44703019,12.3021409 6.43808995,12.0117947 C6.43808995,12.0019067 6.43451386,11.9929177 6.43361983,11.980333 C6.36299192,12.1133709 6.24229866,12.206857 6.0438253,12.2113515" id="Fill-274"></path>
                    </g>
                </g>
            </g>
        </g>
    </g>
</svg>