<?xml version="1.0" encoding="UTF-8"?>
<svg width="47px" height="65px" viewBox="0 0 47 65" version="1.1" xmlns="http://www.w3.org/2000/svg" xmlns:xlink="http://www.w3.org/1999/xlink">
    <title>F39319E8-4E05-4510-984C-2CAAC5428D99</title>
    <defs>
        <linearGradient x1="49.9897646%" y1="100%" x2="49.9897646%" y2="0%" id="linearGradient-1">
            <stop stop-color="#C46D1D" offset="5%"></stop>
            <stop stop-color="#C87222" offset="26%"></stop>
            <stop stop-color="#D4822F" offset="52%"></stop>
            <stop stop-color="#E89B44" offset="80%"></stop>
            <stop stop-color="#FAB157" offset="100%"></stop>
        </linearGradient>
        <linearGradient x1="50%" y1="99.8740554%" x2="50%" y2="0%" id="linearGradient-2">
            <stop stop-color="#8ADEDE" offset="5%"></stop>
            <stop stop-color="#B6F0F0" offset="66%"></stop>
            <stop stop-color="#C9F8F8" offset="100%"></stop>
        </linearGradient>
        <linearGradient x1="49.9807692%" y1="100%" x2="49.9807692%" y2="-1.83129571e-13%" id="linearGradient-3">
            <stop stop-color="#8ADEDE" offset="5%"></stop>
            <stop stop-color="#B6F0F0" offset="66%"></stop>
            <stop stop-color="#C9F8F8" offset="100%"></stop>
        </linearGradient>
        <linearGradient x1="50.010929%" y1="99.9600741%" x2="50.010929%" y2="-0.0340811708%" id="linearGradient-4">
            <stop stop-color="#330600" offset="0%"></stop>
            <stop stop-color="#420C03" offset="15%"></stop>
            <stop stop-color="#581507" offset="46%"></stop>
            <stop stop-color="#661A09" offset="75%"></stop>
            <stop stop-color="#6B1C0A" offset="100%"></stop>
        </linearGradient>
        <linearGradient x1="-9.31859326e-14%" y1="49.564072%" x2="100%" y2="49.564072%" id="linearGradient-5">
            <stop stop-color="#330600" offset="0%"></stop>
            <stop stop-color="#6B1C0A" offset="100%"></stop>
        </linearGradient>
        <linearGradient x1="50%" y1="100%" x2="50%" y2="0%" id="linearGradient-6">
            <stop stop-color="#51740C" offset="0%"></stop>
            <stop stop-color="#5B7F13" offset="19%"></stop>
            <stop stop-color="#759D27" offset="53%"></stop>
            <stop stop-color="#A0CC46" offset="98%"></stop>
            <stop stop-color="#A2CF48" offset="100%"></stop>
        </linearGradient>
        <linearGradient x1="50.2283105%" y1="100%" x2="50.2283105%" y2="-4.05560922e-14%" id="linearGradient-7">
            <stop stop-color="#CCEDED" offset="5%"></stop>
            <stop stop-color="#E6F5F5" offset="63%"></stop>
            <stop stop-color="#F0F8F8" offset="100%"></stop>
        </linearGradient>
        <linearGradient x1="49.6847864%" y1="100%" x2="49.6847864%" y2="-7.51897075e-14%" id="linearGradient-8">
            <stop stop-color="#330600" offset="0%"></stop>
            <stop stop-color="#420C03" offset="15%"></stop>
            <stop stop-color="#581507" offset="46%"></stop>
            <stop stop-color="#661A09" offset="75%"></stop>
            <stop stop-color="#6B1C0A" offset="100%"></stop>
        </linearGradient>
        <linearGradient x1="53.4171834%" y1="58.7636576%" x2="50.2030519%" y2="44.1695879%" id="linearGradient-9">
            <stop stop-color="#330600" offset="0%"></stop>
            <stop stop-color="#3F0B02" offset="29%"></stop>
            <stop stop-color="#5F1708" offset="82%"></stop>
            <stop stop-color="#6B1C0A" offset="100%"></stop>
        </linearGradient>
        <linearGradient x1="39.7098305%" y1="59.1750593%" x2="35.3570681%" y2="35.4163483%" id="linearGradient-10">
            <stop stop-color="#521206" offset="0%"></stop>
            <stop stop-color="#8A2711" offset="100%"></stop>
        </linearGradient>
    </defs>
    <g id="Page-1" stroke="none" stroke-width="1" fill="none" fill-rule="evenodd">
        <g id="Common-Dish-page" transform="translate(-289.000000, -389.000000)" fill-rule="nonzero">
            <g id="Group-22" transform="translate(269.000000, 389.000000)">
                <g id="Untitled-1-01" transform="translate(20.054346, 0.000000)">
                    <path d="M45.3846536,7.01766377 L1.41965362,7.01766377 L7.84565362,63.9137547 L7.84565362,63.9137547 C7.84565362,64.2282467 14.8026536,64.4798403 23.3976536,64.4798403 C31.9926536,64.4798403 38.9586536,64.2282467 38.9586536,63.9137547 L38.9586536,63.9137547 L45.3846536,7.01766377 Z" id="Path" fill="url(#linearGradient-1)"></path>
                    <path d="M45.3846536,7.01766377 L45.1506536,7.01766377 L38.9586536,61.8291222 L38.9586536,61.8291222 C38.9586536,62.1346287 31.9926536,62.3952077 23.3976536,62.3952077 C14.8026536,62.3952077 7.84565362,62.1525996 7.84565362,61.8470932 L7.84565362,61.8470932 L1.65365362,7.03563474 L1.41965362,7.03563474 L7.84565362,63.9137547 L7.84565362,63.9137547 C7.84565362,64.2282467 14.8026536,64.4798403 23.3976536,64.4798403 C31.9926536,64.4798403 38.9586536,64.2282467 38.9586536,63.9137547 L38.9586536,63.9137547 L45.3846536,7.01766377 Z" id="Path" fill="#FADAB2" style="mix-blend-mode: multiply;"></path>
                    <polygon id="Path" fill="#FADAB2" style="mix-blend-mode: multiply;" points="32.8206536 7.01766377 26.5386536 7.01766377 20.2566536 7.01766377 13.9746536 7.01766377 7.69265362 7.01766377 1.41965362 7.01766377 1.80665362 10.46809 44.9886536 10.46809 45.3846536 7.01766377 39.1026536 7.01766377"></polygon>
                    <path d="M41.3076536,0.539129099 C39.7416536,0.14376776 23.3976536,0.00898548499 23.3976536,0.00898548499 C23.3976536,0.00898548499 7.05365362,0.14376776 5.49665362,0.539129099 C3.93965362,0.934490439 2.36465362,6.82896859 2.36465362,6.82896859 L23.3976536,7.14346056 L44.4306536,6.82896859 C44.4306536,6.82896859 42.8646536,0.943475924 41.3076536,0.539129099 Z" id="Path" fill="url(#linearGradient-2)"></path>
                    <path d="M5.49665362,1.2579679 C7.05365362,0.853621074 23.3976536,0.718838799 23.3976536,0.718838799 C23.3976536,0.718838799 39.7416536,0.853621074 41.3076536,1.2579679 C42.5316536,1.56347439 43.7556536,5.25650872 44.2326536,6.8199831 L44.4306536,6.8199831 C44.4306536,6.8199831 42.8646536,0.943475924 41.3076536,0.530143614 C39.7506536,0.116811305 23.3976536,0 23.3976536,0 C23.3976536,0 7.05365362,0.134782275 5.49665362,0.530143614 C3.93965362,0.925504954 2.36465362,6.8199831 2.36465362,6.8199831 L2.56265362,6.8199831 C3.03965362,5.25650872 4.24565362,1.56347439 5.49665362,1.2579679 Z" id="Path" fill="#FFFFFF" opacity="0.5" style="mix-blend-mode: screen;"></path>
                    <path d="M2.92265362,5.00491514 C2.82365362,5.30143614 2.73365362,5.57998618 2.66165362,5.82259427 C2.58965362,6.06520237 2.57165362,6.47853467 2.55365362,6.8199831 L17.9256536,7.05360571 L28.8696536,7.05360571 L44.2506536,6.8199831 C44.2506536,6.47853467 44.1786536,6.15505722 44.1426536,5.81360879 C44.1066536,5.47216036 43.9806536,5.30143614 43.8726536,5.00491514 L2.92265362,5.00491514 Z" id="Path" fill="#DAEDED" style="mix-blend-mode: multiply;"></path>
                    <path d="M46.7886536,7.99708164 C46.7886536,7.03563474 46.2666536,6.25389755 45.6276536,6.25389755 L1.17665362,6.25389755 C0.528653625,6.25389755 0.00665362455,7.03563474 0.00665362455,7.99708164 L0.00665362455,7.99708164 C0.00665362455,8.96751402 0.528653625,9.74026572 1.17665362,9.74026572 L45.6456536,9.74026572 C46.2846536,9.74026572 46.8066536,8.96751402 46.8066536,7.99708164 L46.7886536,7.99708164 Z" id="Path" fill="url(#linearGradient-3)"></path>
                    <path d="M1.17665362,7.01766377 L45.6456536,7.01766377 C46.1946536,7.01766377 46.6626536,7.59273481 46.7706536,8.38345749 C46.7839593,8.25500809 46.7839593,8.12553104 46.7706536,7.99708164 C46.7706536,7.03563474 46.2486536,6.25389755 45.6096536,6.25389755 L1.17665362,6.25389755 C0.528653625,6.25389755 0.00665362455,7.03563474 0.00665362455,7.99708164 C-0.00221787485,8.12572131 -0.00221787485,8.25481782 0.00665362455,8.38345749 C0.159653625,7.59273481 0.645653625,7.01766377 1.17665362,7.01766377 Z" id="Path" fill="#FFFFFF" opacity="0.5"></path>
                    <path d="M45.6456536,9.18316566 L1.17665362,9.18316566 C0.600653625,9.18316566 0.114653625,8.54519622 0.0246536246,7.7185316 C0.0198454136,7.81131957 0.0198454136,7.90429367 0.0246536246,7.99708164 C0.0246536246,8.96751402 0.546653625,9.74026572 1.19465362,9.74026572 L45.6456536,9.74026572 C46.2846536,9.74026572 46.8066536,8.96751402 46.8066536,7.99708164 C46.8114618,7.90429367 46.8114618,7.81131957 46.8066536,7.7185316 C46.6806536,8.55418171 46.2036536,9.18316566 45.6456536,9.18316566 Z" id="Path" fill="#DAEDED" style="mix-blend-mode: multiply;"></path>
                    <path d="M43.9896536,22.9309577 C30.280214,23.8309906 16.5271621,23.8550009 2.81465362,23.0028416 L5.80265362,48.8810383 C17.5291533,49.4516359 29.2769628,49.4336423 41.0016536,48.8271254 L43.9896536,22.9309577 Z" id="Path" fill="url(#linearGradient-4)"></path>
                    <path d="M43.9356536,23.4431303 L43.9896536,22.9219722 C30.280214,23.8220052 16.5271621,23.8460154 2.81465362,22.9938561 L2.87765362,23.5150142 C16.5511273,24.367148 30.2652575,24.3431375 43.9356536,23.4431303 L43.9356536,23.4431303 Z" id="Path" fill="url(#linearGradient-5)"></path>
                    <path d="M41.0016536,47.7937946 C29.2769628,48.4003115 17.5291533,48.4183052 5.80265362,47.8477075 L2.93165362,22.9938561 L2.81465362,22.9938561 L5.80265362,48.8720528 C17.5291533,49.4426504 29.2769628,49.4246568 41.0016536,48.8181399 L43.9896536,22.9309577 L43.8456536,22.9309577 L41.0016536,47.7937946 Z" id="Path" fill="#D6675C" style="mix-blend-mode: multiply;"></path>
                    <path d="M33.8196536,36.9303433 C33.8196536,42.6769719 29.1535653,47.3355349 23.3976536,47.3355349 C17.641742,47.3355349 12.9756536,42.6769719 12.9756536,36.9303433 C12.9756536,31.1837146 17.641742,26.5251517 23.3976536,26.5251517 C29.1535653,26.5251517 33.8196536,31.1837146 33.8196536,36.9303433 Z" id="Path" fill="url(#linearGradient-6)"></path>
                    <path d="M31.2456536,36.9303433 C31.2456536,41.2775339 27.7158666,44.8016281 23.3616536,44.8016281 C19.0074407,44.8016281 15.4776536,41.2775339 15.4776536,36.9303433 C15.4776536,32.5831527 19.0074407,29.0590584 23.3616536,29.0590584 C27.7158666,29.0590584 31.2456536,32.5831527 31.2456536,36.9303433 Z" id="Path" fill="url(#linearGradient-7)"></path>
                    <path d="M28.2666536,36.5529529 C28.5456536,39.3025113 27.1596536,40.982797 25.5666536,40.982797 C23.9736536,40.982797 22.5966536,38.6196145 22.5966536,36.2744029 C22.5966536,33.9291913 23.9196536,32.4915137 25.5666536,32.4915137 C27.2136536,32.4915137 28.0326536,34.2167268 28.2666536,36.5529529 Z" id="Path" fill="url(#linearGradient-8)"></path>
                    <path d="M25.5216536,32.8149912 C27.1596536,32.8149912 28.0326536,34.5491898 28.2216536,36.8764304 C28.2216536,37.0381691 28.2216536,37.1909224 28.2216536,37.3436756 C28.2216536,37.0830965 28.2216536,36.813532 28.2216536,36.534982 C27.9876536,34.1987559 27.1146536,32.4735427 25.5216536,32.4735427 C23.9286536,32.4735427 22.5516536,33.9112203 22.5516536,36.2564319 C22.5516536,36.3193303 22.5516536,36.3732432 22.5516536,36.4361416 C22.6236536,34.2077413 23.9106536,32.8149912 25.5216536,32.8149912 Z" id="Path" fill="#230903" style="mix-blend-mode: screen;"></path>
                    <path d="M25.5216536,40.5964212 C23.9106536,40.5964212 22.6236536,38.3680209 22.5606536,36.1036787 C22.5606536,36.1665771 22.5606536,36.2294755 22.5606536,36.2923739 C22.5606536,38.6375854 23.8836536,41.000768 25.5306536,41.000768 C27.1776536,41.000768 28.3926536,39.5091775 28.3116536,37.0291836 C28.2486536,39.2575839 26.9886536,40.5964212 25.5216536,40.5964212 Z" id="Path" fill="#D6675C" style="mix-blend-mode: multiply;"></path>
                    <path d="M25.5216536,32.8599186 C24.9688332,33.496519 24.7819346,34.3718294 25.0266536,35.1781737 C25.5036536,36.3822287 26.8896536,37.0471546 26.5566536,38.592658 C26.5028049,39.3693569 26.1278712,40.0887196 25.5216536,40.5784502 C26.0107419,39.9520728 26.2250169,39.1546995 26.1156536,38.3680209 C25.8366536,37.2628062 24.6036536,35.9958529 24.5046536,35.2231011 C24.2995589,34.2990063 24.7090585,33.3474602 25.5216536,32.8599186 Z" id="Path" fill="#D6675C" style="mix-blend-mode: multiply;"></path>
                    <path d="M18.5016536,38.8981645 C18.5016536,38.8981645 18.0876536,41.3242454 21.9846536,41.3781584 C25.8816536,41.4320713 25.4406536,38.8442516 25.4406536,38.8442516 L18.5016536,38.8981645 Z" id="Path" fill="url(#linearGradient-9)"></path>
                    <path d="M21.9756536,41.2613471 C19.0866536,41.2613471 18.5736536,39.8775824 18.4926536,39.1946855 C18.4926536,39.8416404 18.9246536,41.3332309 21.9846536,41.3781584 C25.6836536,41.3781584 25.4766536,39.1138161 25.4406536,38.871208 C25.4676536,39.4013517 25.3326536,41.297289 21.9756536,41.2613471 Z" id="Path" fill="#D6675C" style="mix-blend-mode: multiply;"></path>
                    <path d="M21.8406536,37.3526611 C24.0906536,37.1549804 25.4406536,37.7480224 25.4406536,38.8442516 C25.4406536,39.9404808 23.5056536,40.704247 21.5886536,40.722218 C19.6716536,40.7401889 18.5106536,39.9943937 18.5016119,38.925121 C18.4926536,37.8558482 19.9416536,37.5233853 21.8406536,37.3526611 Z" id="Path" fill="url(#linearGradient-10)"></path>
                    <path d="M18.5106536,39.0329468 C18.5106536,37.9367176 19.9506536,37.6581676 21.8496536,37.4874434 C24.0096536,37.2897627 25.3236536,37.8378773 25.4496536,38.8532371 L25.4496536,38.8532371 C25.4496536,37.7570079 24.0996536,37.1639659 21.8496536,37.3616466 C19.9506536,37.5323708 18.5016536,37.8109208 18.5106536,38.90715 C18.5061957,38.978965 18.5061957,39.0509866 18.5106536,39.1228016 C18.5106536,39.1228016 18.5106536,39.1048307 18.5106536,39.0329468 Z" id="Path" fill="#230903" style="mix-blend-mode: screen;"></path>
                    <path d="M18.7986536,38.8981645 C19.3599306,39.2716286 20.0549256,39.3861833 20.7066536,39.2126565 C21.6876536,38.8801935 22.2186536,37.9546886 23.4876536,38.1703402 C24.7566536,38.3859919 24.8016536,38.610629 25.1076536,38.8532371 C24.569818,38.5220939 23.9342834,38.3856743 23.3076536,38.4668612 C22.4076536,38.6555564 21.3726536,39.482221 20.7426536,39.5541049 C20.0232145,39.7077168 19.2772558,39.4560169 18.7986536,38.8981645 L18.7986536,38.8981645 Z" id="Path" fill="#D6675C" style="mix-blend-mode: multiply;"></path>
                </g>
            </g>
        </g>
    </g>
</svg>