<?xml version="1.0" encoding="UTF-8"?>
<svg width="53px" height="62px" viewBox="0 0 53 62" version="1.1" xmlns="http://www.w3.org/2000/svg" xmlns:xlink="http://www.w3.org/1999/xlink">
    <title>FA3B4445-6BA4-421B-9038-10CFB4FA9F11</title>
    <defs>
        <path d="M9.74096112,0.4401 C2.77676112,2.277 -1.39203888,9.3573 0.42596112,16.2513 L0.42596112,16.2513 C2.24486112,23.1507 9.36566112,27.2511 16.3262611,25.416 L16.3262611,25.416 C23.2949611,23.5791 27.4646611,16.497 25.6439611,9.5994 L25.6439611,9.5994 C24.1193611,3.8187 18.8696611,0 13.1087611,0 L13.1087611,0 C11.9972611,0 10.8668611,0.1422 9.74096112,0.4401" id="path-1"></path>
        <linearGradient x1="50.0007378%" y1="100.001175%" x2="50.0007378%" y2="-0.000876193295%" id="linearGradient-3">
            <stop stop-color="#F2C83F" offset="0%"></stop>
            <stop stop-color="#D3670D" offset="100%"></stop>
        </linearGradient>
        <path d="M12.7135349,0 C10.5256349,0.0135 8.45113493,0.4959 6.80773493,1.404 L6.80773493,1.404 C1.60483493,4.2822 -0.12856507,8.4987 0.00733492955,11.7486 L0.00733492955,11.7486 C0.14323493,15.0003 2.90623493,13.6998 2.90623493,9.9207 L2.90623493,9.9207 C2.90623493,6.1452 7.11103493,2.8161 7.67443493,6.9237 L7.67443493,6.9237 C8.23783493,11.0313 7.45663493,18.684 9.27733493,18.1539 L9.27733493,18.1539 C11.0989349,17.6283 10.4923349,13.4838 9.62383493,9.9207 L9.62383493,9.9207 C8.75803493,6.3612 9.40693493,4.5945 12.8566349,3.7296 L12.8566349,3.7296 C16.3072349,2.8629 15.9112349,3.5118 17.2819349,5.0301 L17.2819349,5.0301 C18.6553349,6.5493 22.3093349,7.2225 22.3093349,7.2225 L22.3093349,7.2225 C22.3093349,7.2225 29.1322349,13.9158 25.3279349,6.9237 L25.3279349,6.9237 C22.7611349,2.2014 17.5924349,0.0297 12.9034349,0 L12.9034349,0 L12.7135349,0 Z" id="path-4"></path>
        <path d="M9.69015343,0.5085 C3.09225343,2.2509 -1.12604657,7.9416 0.265353435,13.2183 L0.265353435,13.2183 C1.65855343,18.4968 8.13765343,21.3642 14.7328534,19.6272 L14.7328534,19.6272 C21.3325534,17.8848 25.5499534,12.1968 24.1567534,6.9165 L24.1567534,6.9165 C23.0416534,2.6838 18.6541534,0 13.5583534,0 L13.5583534,0 C12.2992534,0 10.9969534,0.1638 9.69015343,0.5085" id="path-6"></path>
        <linearGradient x1="50.0000779%" y1="99.9993318%" x2="50.0000779%" y2="0.00235208568%" id="linearGradient-8">
            <stop stop-color="#50740B" offset="0%"></stop>
            <stop stop-color="#A1CF48" offset="100%"></stop>
        </linearGradient>
        <path d="M10.7848167,0.1746 C8.38451665,0.4176 4.01321665,2.5524 2.69471665,5.1876 L2.69471665,5.1876 C1.37081665,7.8282 0.0208166503,9.5031 0,11.9745 L0,11.9745 C-0.0223833497,14.4459 3.21671665,13.9698 3.92321665,9.8514 L3.92321665,9.8514 C4.62881665,5.7348 7.75811665,5.6943 8.71031665,7.6059 L8.71031665,7.6059 C9.66251665,9.5193 10.8730167,9 13.2184167,5.4324 L13.2184167,5.4324 C15.5638167,1.8639 19.0135167,5.8716 22.4002167,8.5149 L22.4002167,8.5149 C25.7869167,11.1609 26.7319167,7.8354 23.3308167,3.5532 L23.3308167,3.5532 C20.9710167,0.5814 16.9138167,0 13.8781167,0 L13.8781167,0 C12.5974167,0 11.4976167,0.1035 10.7848167,0.1746" id="path-9"></path>
        <linearGradient x1="50.0000964%" y1="100.001404%" x2="50.0000964%" y2="0.00135391414%" id="linearGradient-11">
            <stop stop-color="#6B1C0A" offset="0%"></stop>
            <stop stop-color="#330500" offset="100%"></stop>
        </linearGradient>
        <path d="M0.370698841,7.7481 C-0.243101159,9.9045 -0.0730011588,12.0852 0.720798841,14.0319 L0.720798841,14.0319 C1.96909884,17.1081 4.77079884,19.5993 8.48419884,20.5074 L8.48419884,20.5074 C14.5483988,21.9879 20.7466988,18.6813 22.3342988,13.1157 L22.3342988,13.1157 C23.9182988,7.5501 20.2822988,1.836 14.2216988,0.3537 L14.2216988,0.3537 C13.2406988,0.1143 12.2578988,0 11.2903988,0 L11.2903988,0 C6.27379884,0 1.69909884,3.0798 0.370698841,7.7481" id="path-12"></path>
        <linearGradient x1="50.0001233%" y1="99.9993738%" x2="50.0001233%" y2="0.000813680169%" id="linearGradient-14">
            <stop stop-color="#A80808" offset="0%"></stop>
            <stop stop-color="#EF4431" offset="100%"></stop>
        </linearGradient>
        <path d="M1.0041452,5.5836 C-2.3078548,11.2284 3.6339452,5.8248 3.6339452,5.8248 L3.6339452,5.8248 C3.6339452,5.8248 6.8172452,5.283 8.0115452,4.0599 L8.0115452,4.0599 C9.2067452,2.8323 8.8620452,2.3112 11.8662452,3.0105 L11.8662452,3.0105 C14.8704452,3.708 15.4365452,5.1327 14.6796452,8.0082 L14.6796452,8.0082 C13.9254452,10.8783 13.3953452,14.2236 14.9829452,14.6502 L14.9829452,14.6502 C16.5696452,15.0759 15.8874452,8.9028 16.3779452,5.5836 L16.3779452,5.5836 C16.8684452,2.2707 20.5323452,4.9581 20.5323452,8.0082 L20.5323452,8.0082 C20.5323452,11.0502 22.9353452,12.1014 23.0541452,9.4833 L23.0541452,9.4833 C23.0586452,9.3951 23.0604452,9.306 23.0613452,9.216 L23.0613452,9.216 L23.0613452,9.1701 C23.0505452,6.5925 21.4845452,3.3651 17.1339452,1.1331 L17.1339452,1.1331 C15.6831452,0.3897 13.8453452,0 11.9094452,0 L11.9094452,0 C7.8045452,0 3.2568452,1.7505 1.0041452,5.5836" id="path-15"></path>
        <linearGradient x1="49.9998417%" y1="100.002499%" x2="49.9998417%" y2="0.00162380177%" id="linearGradient-17">
            <stop stop-color="#6B1C0A" offset="0%"></stop>
            <stop stop-color="#330500" offset="100%"></stop>
        </linearGradient>
        <path d="M25.6365,1.5408 C5.1471,1.5525 0,0 0,0 L0,0 C2.7378,15.8643 21.8529,15.669 22.4064,19.8162 L22.4064,19.8162 C23.0472,24.6042 24.273,29.4669 20.7702,30.321 L20.7702,30.321 C15.8031,31.5288 4.5567,34.1163 13.2696,35.8281 L13.2696,35.8281 C20.0403,37.1592 23.5638,37.3428 24.9372,37.3491 L24.9372,37.3491 L25.0686,37.3491 C25.4592,37.3473 25.6365,37.3311 25.6365,37.3311 L25.6365,37.3311 C25.6365,37.3311 25.8147,37.3473 26.2044,37.3491 L26.2044,37.3491 L26.3358,37.3491 C27.7092,37.3437 31.2327,37.1592 38.0043,35.8281 L38.0043,35.8281 C46.7181,34.1163 35.2593,32.0418 30.5055,30.321 L30.5055,30.321 C27.8964,29.3751 28.8729,24.6357 28.8684,19.8162 L28.8684,19.8162 C28.8648,15.669 48.5388,15.8643 51.2748,0 L51.2748,0 C51.2748,0 49.1589,1.5264 25.6365,1.5408" id="path-18"></path>
    </defs>
    <g id="Page-1" stroke="none" stroke-width="1" fill="none" fill-rule="evenodd">
        <g id="Common-Dish-page" transform="translate(-106.000000, -392.000000)">
            <g id="Group-25" transform="translate(93.000000, 392.000000)">
                <g id="Group-57" transform="translate(13.500000, 0.000000)">
                    <g id="Group-5" transform="translate(0.000180, 7.800354)">
                        <path d="M23.51052,3.55305614 C26.91252,7.83525614 25.96662,11.1607561 22.57992,8.51565614 C19.19232,5.87145614 15.74352,1.86375614 13.39812,5.43225614 C11.05272,9.00075614 9.84222,9.51915614 8.89002,7.60665614 C7.93782,5.69415614 4.80942,5.73465614 4.10202,9.85125614 C3.39642,13.9696561 0.15732,14.4466561 0.17970335,11.9743561 C0.20052,9.50295614 1.55142,7.82805614 2.87442,5.18745614 C4.19382,2.55315614 8.56422,0.417456143 10.96452,0.174456143 C13.36662,-0.0649438567 20.15532,-0.672443857 23.51052,3.55305614" id="Fill-1" fill="#A85D32"></path>
                        <path d="M51.2748,16.2444061 C51.2748,16.2444061 25.0938,9.55110614 0,16.2444061 C0,16.2444061 28.4508,25.4469061 51.2748,16.2444061" id="Fill-3" fill="#A2E0BE"></path>
                    </g>
                    <g id="Group-8" transform="translate(13.080339, 1.405800)">
                        <mask id="mask-2" fill="white">
                            <use xlink:href="#path-1"></use>
                        </mask>
                        <g id="Clip-7"></g>
                        <path d="M9.74096112,0.4401 C2.77676112,2.277 -1.39203888,9.3573 0.42596112,16.2513 L0.42596112,16.2513 C2.24486112,23.1507 9.36566112,27.2511 16.3262611,25.416 L16.3262611,25.416 C23.2949611,23.5791 27.4646611,16.497 25.6439611,9.5994 L25.6439611,9.5994 C24.1193611,3.8187 18.8696611,0 13.1087611,0 L13.1087611,0 C11.9972611,0 10.8668611,0.1422 9.74096112,0.4401" id="Fill-6" fill="url(#linearGradient-3)" mask="url(#mask-2)"></path>
                    </g>
                    <path d="M29.40732,23.92353 C22.44582,25.75683 15.32592,21.65463 13.50612,14.75793 C13.34412,14.14683 13.24692,13.53483 13.17762,12.92643 C12.99942,14.46993 13.08672,16.06743 13.50612,17.65683 C15.32592,24.55623 22.44582,28.65753 29.40732,26.82243 C35.75682,25.15023 39.76632,19.11753 39.05262,12.84183 C38.45772,17.99073 34.76772,22.51053 29.40732,23.92353" id="Fill-9" fill="#FADAB2"></path>
                    <g id="Group-13" transform="translate(12.678165, 0.000000)">
                        <mask id="mask-5" fill="white">
                            <use xlink:href="#path-4"></use>
                        </mask>
                        <g id="Clip-12"></g>
                        <path d="M12.7135349,0 C10.5256349,0.0135 8.45113493,0.4959 6.80773493,1.404 L6.80773493,1.404 C1.60483493,4.2822 -0.12856507,8.4987 0.00733492955,11.7486 L0.00733492955,11.7486 C0.14323493,15.0003 2.90623493,13.6998 2.90623493,9.9207 L2.90623493,9.9207 C2.90623493,6.1452 7.11103493,2.8161 7.67443493,6.9237 L7.67443493,6.9237 C8.23783493,11.0313 7.45663493,18.684 9.27733493,18.1539 L9.27733493,18.1539 C11.0989349,17.6283 10.4923349,13.4838 9.62383493,9.9207 L9.62383493,9.9207 C8.75803493,6.3612 9.40693493,4.5945 12.8566349,3.7296 L12.8566349,3.7296 C16.3072349,2.8629 15.9112349,3.5118 17.2819349,5.0301 L17.2819349,5.0301 C18.6553349,6.5493 22.3093349,7.2225 22.3093349,7.2225 L22.3093349,7.2225 C22.3093349,7.2225 29.1322349,13.9158 25.3279349,6.9237 L25.3279349,6.9237 C22.7611349,2.2014 17.5924349,0.0297 12.9034349,0 L12.9034349,0 L12.7135349,0 Z" id="Fill-11" mask="url(#mask-5)"></path>
                    </g>
                    <g id="Group-18" transform="translate(12.678109, 2.380793)">
                        <path d="M25.3279915,4.54290654 C24.7915915,3.55650654 24.1309915,2.69160654 23.3965915,1.92570654 C23.7412915,2.38110654 24.0697915,2.85720654 24.3523915,3.37920654 C27.9379915,9.96900654 21.5074915,3.65910654 21.5074915,3.65910654 C21.5074915,3.65910654 18.0640915,3.02460654 16.7707915,1.59180654 C15.4765915,0.160806545 15.8500915,-0.449393455 12.6001915,0.364206545 C9.35119148,1.18410654 8.25229148,3.35670654 9.06949148,6.71010654 C9.88669148,10.0680065 10.8775915,13.2756065 9.22699148,13.9650065 C8.47549148,14.2773065 8.24689148,7.25010654 7.71589148,3.37920654 C7.18399148,-0.491693455 2.73799148,3.15060654 2.73799148,6.71010654 C2.73799148,10.2714065 0.619391484,10.9905065 0.490691484,7.92690654 C0.453791484,7.06740654 0.562691484,6.13410654 0.837191484,5.17920654 C0.200891484,6.63090654 -0.0475085164,8.07810654 0.00739148359,9.36780654 C0.143291484,12.6204065 2.90629148,11.3190065 2.90629148,7.53990654 C2.90629148,3.76440654 7.11109148,0.435306545 7.67449148,4.54290654 C8.23789148,8.65050654 7.45759148,16.3023065 9.27829148,15.7740065 C11.0998915,15.2484065 10.4914915,11.1030065 9.62389148,7.53990654 C8.75809148,3.98040654 9.40789148,2.21370654 12.8566915,1.34880654 C16.3072915,0.482106545 15.9112915,1.13100654 17.2828915,2.64930654 C18.6553915,4.16850654 22.3093915,4.84170654 22.3093915,4.84170654 C22.3093915,4.84170654 29.1331915,11.5359065 25.3279915,4.54290654" id="Fill-14" fill="#D6675C"></path>
                        <path d="M4.27645148,7.23588654 C4.27645148,7.23588654 3.22975148,9.30318654 6.09535148,14.1388865 C8.96095148,18.9727865 2.07325148,22.0282865 2.55115148,13.9615865 C3.02725148,5.88948654 2.38465148,7.21788654 1.24885148,5.73468654 C0.114851484,4.25328654 4.27645148,7.23588654 4.27645148,7.23588654" id="Fill-16" fill="#A85D32"></path>
                    </g>
                    <g id="Group-21" transform="translate(0.937047, 10.434600)">
                        <mask id="mask-7" fill="white">
                            <use xlink:href="#path-6"></use>
                        </mask>
                        <g id="Clip-20"></g>
                        <path d="M9.69015343,0.5085 C3.09225343,2.2509 -1.12604657,7.9416 0.265353435,13.2183 L0.265353435,13.2183 C1.65855343,18.4968 8.13765343,21.3642 14.7328534,19.6272 L14.7328534,19.6272 C21.3325534,17.8848 25.5499534,12.1968 24.1567534,6.9165 L24.1567534,6.9165 C23.0416534,2.6838 18.6541534,0 13.5583534,0 L13.5583534,0 C12.2992534,0 10.9969534,0.1638 9.69015343,0.5085" id="Fill-19" fill="url(#linearGradient-8)" mask="url(#mask-7)"></path>
                    </g>
                    <path d="M15.67044,28.60281 C9.07434,30.33981 2.59524,27.47061 1.20204,22.19211 C1.08324,21.74211 1.02024,21.28851 0.98064,20.83491 C0.89424,21.77181 0.95544,22.71951 1.20204,23.65281 C2.59524,28.93131 9.07434,31.79871 15.67044,30.06171 C21.70584,28.46781 25.73424,23.57541 25.31574,18.71181 C24.90894,23.06241 21.10014,27.16641 15.67044,28.60281" id="Fill-22" fill="#E2EBD1"></path>
                    <g id="Group-26" transform="translate(0.179883, 7.800300)">
                        <mask id="mask-10" fill="white">
                            <use xlink:href="#path-9"></use>
                        </mask>
                        <g id="Clip-25"></g>
                        <path d="M10.7848167,0.1746 C8.38451665,0.4176 4.01321665,2.5524 2.69471665,5.1876 L2.69471665,5.1876 C1.37081665,7.8282 0.0208166503,9.5031 0,11.9745 L0,11.9745 C-0.0223833497,14.4459 3.21671665,13.9698 3.92321665,9.8514 L3.92321665,9.8514 C4.62881665,5.7348 7.75811665,5.6943 8.71031665,7.6059 L8.71031665,7.6059 C9.66251665,9.5193 10.8730167,9 13.2184167,5.4324 L13.2184167,5.4324 C15.5638167,1.8639 19.0135167,5.8716 22.4002167,8.5149 L22.4002167,8.5149 C25.7869167,11.1609 26.7319167,7.8354 23.3308167,3.5532 L23.3308167,3.5532 C20.9710167,0.5814 16.9138167,0 13.8781167,0 L13.8781167,0 C12.5974167,0 11.4976167,0.1035 10.7848167,0.1746" id="Fill-24" fill="url(#linearGradient-11)" mask="url(#mask-10)"></path>
                    </g>
                    <path d="M25.35291,14.53329 C25.10811,15.54939 24.02901,15.70959 22.34961,14.39829 C18.96021,11.75229 15.51141,7.74639 13.16601,11.31669 C10.82061,14.88339 9.61101,15.39639 8.65701,13.48749 C7.70661,11.57499 4.57821,11.61369 3.86991,15.73209 C3.29751,19.07739 1.05651,20.01789 0.24381,18.93159 C0.20691,19.20699 0.18351,19.48509 0.17979335,19.77489 C0.15741,22.24629 3.39651,21.77019 4.10211,17.65179 C4.80951,13.53519 7.93791,13.49469 8.89011,15.40719 C9.84231,17.31969 11.05281,16.80129 13.39821,13.23279 C15.74361,9.66429 19.19241,13.67199 22.58001,16.31529 C25.04511,18.24039 26.20521,16.99569 25.35291,14.53329" id="Fill-27" fill="#D6675C"></path>
                    <g id="Group-31" transform="translate(28.499501, 8.053200)">
                        <mask id="mask-13" fill="white">
                            <use xlink:href="#path-12"></use>
                        </mask>
                        <g id="Clip-30"></g>
                        <path d="M0.370698841,7.7481 C-0.243101159,9.9045 -0.0730011588,12.0852 0.720798841,14.0319 L0.720798841,14.0319 C1.96909884,17.1081 4.77079884,19.5993 8.48419884,20.5074 L8.48419884,20.5074 C14.5483988,21.9879 20.7466988,18.6813 22.3342988,13.1157 L22.3342988,13.1157 C23.9182988,7.5501 20.2822988,1.836 14.2216988,0.3537 L14.2216988,0.3537 C13.2406988,0.1143 12.2578988,0 11.2903988,0 L11.2903988,0 C6.27379884,0 1.69909884,3.0798 0.370698841,7.7481" id="Fill-29" fill="url(#linearGradient-14)" mask="url(#mask-13)"></path>
                    </g>
                    <path d="M50.83371,19.87353 C49.24611,25.43733 43.04871,28.74663 36.98361,27.26703 C33.27021,26.35623 30.46851,23.86683 29.22021,20.79153 C28.83591,19.84923 28.60191,18.85023 28.52811,17.82963 C28.43361,19.30203 28.67571,20.74923 29.22021,22.08483 C30.46851,25.16103 33.27021,27.65223 36.98361,28.56033 C43.04871,30.04083 49.24611,26.73423 50.83371,21.16863 C51.14511,20.07063 51.24771,18.96993 51.17571,17.89623 C51.13071,18.55323 51.02091,19.21473 50.83371,19.87353" id="Fill-32" fill="#EE4230"></path>
                    <g id="Group-36" transform="translate(28.491555, 6.919200)">
                        <mask id="mask-16" fill="white">
                            <use xlink:href="#path-15"></use>
                        </mask>
                        <g id="Clip-35"></g>
                        <path d="M1.0041452,5.5836 C-2.3078548,11.2284 3.6339452,5.8248 3.6339452,5.8248 L3.6339452,5.8248 C3.6339452,5.8248 6.8172452,5.283 8.0115452,4.0599 L8.0115452,4.0599 C9.2067452,2.8323 8.8620452,2.3112 11.8662452,3.0105 L11.8662452,3.0105 C14.8704452,3.708 15.4365452,5.1327 14.6796452,8.0082 L14.6796452,8.0082 C13.9254452,10.8783 13.3953452,14.2236 14.9829452,14.6502 L14.9829452,14.6502 C16.5696452,15.0759 15.8874452,8.9028 16.3779452,5.5836 L16.3779452,5.5836 C16.8684452,2.2707 20.5323452,4.9581 20.5323452,8.0082 L20.5323452,8.0082 C20.5323452,11.0502 22.9353452,12.1014 23.0541452,9.4833 L23.0541452,9.4833 C23.0586452,9.3951 23.0604452,9.306 23.0613452,9.216 L23.0613452,9.216 L23.0613452,9.1701 C23.0505452,6.5925 21.4845452,3.3651 17.1339452,1.1331 L17.1339452,1.1331 C15.6831452,0.3897 13.8453452,0 11.9094452,0 L11.9094452,0 C7.8045452,0 3.2568452,1.7505 1.0041452,5.5836" id="Fill-34" fill="url(#linearGradient-17)" mask="url(#mask-16)"></path>
                    </g>
                    <path d="M51.18795,13.9338 C51.19425,14.1039 51.19605,14.2749 51.18795,14.4432 C51.07725,16.9119 49.65795,17.1225 49.65795,14.2551 C49.65795,11.3832 44.80245,8.0541 44.45415,10.8099 C44.05545,13.9428 44.45415,19.9908 43.66755,19.9755 C42.12045,19.9386 43.13205,16.3944 43.84215,13.6899 C44.55585,10.9827 43.16445,9.3762 40.33845,8.7165 C37.50795,8.0595 37.37475,8.7516 36.24975,9.9018 C35.12475,11.0565 32.90085,10.9998 32.90085,10.9998 C32.90085,10.9998 28.58895,14.9202 29.64735,12.2796 C29.60235,12.357 29.54385,12.4236 29.49615,12.5028 C26.18415,18.1476 32.12595,12.744 32.12595,12.744 C32.12595,12.744 35.30835,12.2022 36.50265,10.9791 C37.69875,9.7524 37.35405,9.2295 40.35735,9.9297 C43.36155,10.6272 43.92765,12.051 43.17165,14.9274 C42.41655,17.7975 41.88735,21.1428 43.47405,21.5694 C45.06165,21.9951 44.37945,15.822 44.86995,12.5028 C45.36045,9.1899 49.02345,11.8773 49.02345,14.9274 C49.02345,17.9694 51.42735,19.0206 51.54525,16.4016 C51.58125,15.6285 51.46875,14.7897 51.18795,13.9338" id="Fill-37" fill="#D6675C"></path>
                    <g id="Group-41" transform="translate(0.000000, 24.044400)">
                        <mask id="mask-19" fill="white">
                            <use xlink:href="#path-18"></use>
                        </mask>
                        <g id="Clip-40"></g>
                        <path d="M25.6365,1.5408 C5.1471,1.5525 0,0 0,0 L0,0 C2.7378,15.8643 21.8529,15.669 22.4064,19.8162 L22.4064,19.8162 C23.0472,24.6042 24.273,29.4669 20.7702,30.321 L20.7702,30.321 C15.8031,31.5288 4.5567,34.1163 13.2696,35.8281 L13.2696,35.8281 C20.0403,37.1592 23.5638,37.3428 24.9372,37.3491 L24.9372,37.3491 L25.0686,37.3491 C25.4592,37.3473 25.6365,37.3311 25.6365,37.3311 L25.6365,37.3311 C25.6365,37.3311 25.8147,37.3473 26.2044,37.3491 L26.2044,37.3491 L26.3358,37.3491 C27.7092,37.3437 31.2327,37.1592 38.0043,35.8281 L38.0043,35.8281 C46.7181,34.1163 35.2593,32.0418 30.5055,30.321 L30.5055,30.321 C27.8964,29.3751 28.8729,24.6357 28.8684,19.8162 L28.8684,19.8162 C28.8648,15.669 48.5388,15.8643 51.2748,0 L51.2748,0 C51.2748,0 49.1589,1.5264 25.6365,1.5408" id="Fill-39" fill="#AED4EB" mask="url(#mask-19)"></path>
                    </g>
                    <g id="Group-56" transform="translate(0.000000, 24.044400)">
                        <g id="Group-48" transform="translate(0.000270, 0.000720)" fill="#FFFFFF">
                            <path d="M25.6365,2.4219 C45.6399,2.4093 50.1597,1.3077 51.066,0.9738 C51.1389,0.6534 51.2172,0.3357 51.2748,0 C51.2748,0 49.1589,1.5255 25.6365,1.5399 C5.1462,1.5516 0,0 0,0 C0.0558,0.3195 0.1305,0.6255 0.1989,0.9333 C1.3023,1.1988 7.3692,2.4345 25.6365,2.4219" id="Fill-42"></path>
                            <path d="M30.50478,30.32019 C28.48428,29.58939 28.87218,26.35659 28.85688,22.20399 C28.84428,26.60589 28.34028,30.41829 30.50478,31.20219 C33.75018,32.37669 39.07908,33.71409 40.59918,34.99209 C42.69978,33.46839 34.50708,31.76829 30.50478,30.32019" id="Fill-44"></path>
                            <path d="M22.88646,24.12036 C22.83156,27.18216 22.82616,29.81916 20.76966,30.32046 C16.63236,31.32396 8.73846,33.29046 10.60686,34.90596 C12.02526,33.50916 17.36316,32.03046 20.76966,31.20246 C23.02236,30.65256 22.94046,27.54306 22.88646,24.12036" id="Fill-46"></path>
                        </g>
                        <g id="Group-55" fill="#DAEDED">
                            <path d="M40.59927,34.11072 C40.20507,34.39512 39.38157,34.67682 38.00457,34.94952 C28.85787,36.74592 25.63677,36.45072 25.63677,36.45072 C25.63677,36.45072 22.41567,36.74592 13.26987,34.94952 C11.81547,34.66242 10.98027,34.35012 10.60587,34.02432 C9.95787,34.66782 10.53387,35.29152 13.26987,35.82792 C22.41567,37.62612 25.63677,37.33092 25.63677,37.33092 C25.63677,37.33092 28.85787,37.62612 38.00457,35.82792 C40.77117,35.28702 41.30487,34.70292 40.59927,34.11072" id="Fill-49"></path>
                            <path d="M22.4064,19.8162 C22.635,21.5244 22.8546,22.4298 22.887,24.3324 C22.9239,22.1787 22.6701,20.9097 22.4064,18.9342 C21.8628,14.8716 3.5676,14.9625 0.1998,0.0513 C0.0648,0.0198 0,0 0,0 C2.7378,15.8643 21.8529,15.6699 22.4064,19.8162" id="Fill-51"></path>
                            <path d="M28.86858,18.93375 C28.87038,20.01825 28.85418,20.11635 28.85778,21.32235 C28.86138,20.42235 28.86858,20.63565 28.86858,19.81575 C28.86498,15.66945 48.53808,15.86475 51.27498,0.00045 C51.27498,0.00045 51.22458,0.03555 51.06708,0.09135 C47.64978,14.96475 28.86498,14.87295 28.86858,18.93375" id="Fill-53"></path>
                        </g>
                    </g>
                </g>
            </g>
        </g>
    </g>
</svg>