<svg width="471" height="381" viewBox="0 0 471 381" fill="none" xmlns="http://www.w3.org/2000/svg">
<path d="M33.602 0C15.043 0 0 15.043 0 33.602C0 52.157 15.043 67.204 33.602 67.204H436.802C455.361 67.204 470.404 52.161 470.404 33.602C470.404 15.043 455.361 0 436.802 0H33.602ZM33.602 156.8C15.043 156.8 0 171.843 0 190.402C0 208.957 15.043 224.004 33.602 224.004H436.802C455.361 224.004 470.404 208.961 470.404 190.402C470.404 171.843 455.361 156.8 436.802 156.8H33.602ZM33.602 313.6C15.043 313.6 0 328.643 0 347.202C0 365.757 15.043 380.804 33.602 380.804H436.802C455.361 380.804 470.404 365.761 470.404 347.202C470.404 328.643 455.361 313.6 436.802 313.6H33.602Z" fill="black"/>
</svg>
